%TF.GenerationSoftware,KiCad,Pcbnew,(6.0.9)*%
%TF.CreationDate,2023-01-27T09:49:58+02:00*%
%TF.ProjectId,arc60_plate_gerbers,61726336-305f-4706-9c61-74655f676572,rev?*%
%TF.SameCoordinates,Original*%
%TF.FileFunction,Drillmap*%
%TF.FilePolarity,Positive*%
%FSLAX45Y45*%
G04 Gerber Fmt 4.5, Leading zero omitted, Abs format (unit mm)*
G04 Created by KiCad (PCBNEW (6.0.9)) date 2023-01-27 09:49:58*
%MOMM*%
%LPD*%
G01*
G04 APERTURE LIST*
%ADD10C,0.200000*%
G04 APERTURE END LIST*
D10*
X1626576Y-2093122D02*
X2926576Y-2093122D01*
X1626576Y-2093122D02*
G75*
G03*
X1576576Y-2143122I0J-50000D01*
G01*
X1576576Y-3443122D02*
X1576576Y-2143122D01*
X1576576Y-3443122D02*
G75*
G03*
X1626576Y-3493122I50000J0D01*
G01*
X2926576Y-3493122D02*
X1626576Y-3493122D01*
X2926576Y-3493122D02*
G75*
G03*
X2976576Y-3443122I0J50000D01*
G01*
X2976576Y-2143122D02*
X2976576Y-3443122D01*
X2976576Y-2143122D02*
G75*
G03*
X2926576Y-2093122I-50000J0D01*
G01*
X10199046Y-3998122D02*
X11499046Y-3998122D01*
X10199046Y-3998122D02*
G75*
G03*
X10149046Y-4048122I0J-50000D01*
G01*
X10149046Y-5348122D02*
X10149046Y-4048122D01*
X10149046Y-5348122D02*
G75*
G03*
X10199046Y-5398122I50000J0D01*
G01*
X11499046Y-5398122D02*
X10199046Y-5398122D01*
X11499046Y-5398122D02*
G75*
G03*
X11549046Y-5348122I0J50000D01*
G01*
X11549046Y-4048122D02*
X11549046Y-5348122D01*
X11549046Y-4048122D02*
G75*
G03*
X11499046Y-3998122I-50000J0D01*
G01*
X26923361Y-5723072D02*
X26923361Y-5903135D01*
X26923356Y-5723072D02*
G75*
G03*
X26870861Y-5670572I-52500J0D01*
G01*
X26240861Y-5670572D02*
X26870861Y-5670572D01*
X26240861Y-5670567D02*
G75*
G03*
X26188361Y-5723072I5J-52505D01*
G01*
X26188361Y-5903145D02*
X26188361Y-5723072D01*
X25917778Y-5902995D02*
X26188361Y-5903145D01*
X25915338Y-5903062D02*
X25917778Y-5902995D01*
X25912903Y-5903200D02*
X25915338Y-5903062D01*
X25911689Y-5903301D02*
X25912903Y-5903200D01*
X25910476Y-5903425D02*
X25911689Y-5903301D01*
X25909274Y-5903573D02*
X25910476Y-5903425D01*
X25908076Y-5903747D02*
X25909274Y-5903573D01*
X25906881Y-5903946D02*
X25908076Y-5903747D01*
X25905690Y-5904170D02*
X25906881Y-5903946D01*
X25904504Y-5904420D02*
X25905690Y-5904170D01*
X25903324Y-5904696D02*
X25904504Y-5904420D01*
X25902151Y-5904998D02*
X25903324Y-5904696D01*
X25900984Y-5905326D02*
X25902151Y-5904998D01*
X25899826Y-5905680D02*
X25900984Y-5905326D01*
X25898676Y-5906060D02*
X25899826Y-5905680D01*
X25897536Y-5906467D02*
X25898676Y-5906060D01*
X25896406Y-5906900D02*
X25897536Y-5906467D01*
X25895287Y-5907359D02*
X25896406Y-5906900D01*
X25894179Y-5907846D02*
X25895287Y-5907359D01*
X25893084Y-5908359D02*
X25894179Y-5907846D01*
X25892002Y-5908899D02*
X25893084Y-5908359D01*
X25890939Y-5909464D02*
X25892002Y-5908899D01*
X25889891Y-5910054D02*
X25890939Y-5909464D01*
X25888857Y-5910671D02*
X25889891Y-5910054D01*
X25887838Y-5911314D02*
X25888857Y-5910671D01*
X25886836Y-5911982D02*
X25887838Y-5911314D01*
X25885850Y-5912675D02*
X25886836Y-5911982D01*
X25884882Y-5913392D02*
X25885850Y-5912675D01*
X25883931Y-5914134D02*
X25884882Y-5913392D01*
X25882999Y-5914899D02*
X25883931Y-5914134D01*
X25882086Y-5915688D02*
X25882999Y-5914899D01*
X25881192Y-5916500D02*
X25882086Y-5915688D01*
X25880319Y-5917335D02*
X25881192Y-5916500D01*
X25879466Y-5918192D02*
X25880319Y-5917335D01*
X25878635Y-5919071D02*
X25879466Y-5918192D01*
X25877825Y-5919971D02*
X25878635Y-5919071D01*
X25877038Y-5920893D02*
X25877825Y-5919971D01*
X25876346Y-5921746D02*
X25877038Y-5920893D01*
X25875672Y-5922615D02*
X25876346Y-5921746D01*
X25875018Y-5923500D02*
X25875672Y-5922615D01*
X25874383Y-5924400D02*
X25875018Y-5923500D01*
X25873768Y-5925314D02*
X25874383Y-5924400D01*
X25873172Y-5926243D02*
X25873768Y-5925314D01*
X25872597Y-5927184D02*
X25873172Y-5926243D01*
X25872042Y-5928139D02*
X25872597Y-5927184D01*
X25871508Y-5929105D02*
X25872042Y-5928139D01*
X25870994Y-5930082D02*
X25871508Y-5929105D01*
X25870501Y-5931070D02*
X25870994Y-5930082D01*
X25870029Y-5932069D02*
X25870501Y-5931070D01*
X25869578Y-5933076D02*
X25870029Y-5932069D01*
X25869149Y-5934092D02*
X25869578Y-5933076D01*
X25868741Y-5935117D02*
X25869149Y-5934092D01*
X25868355Y-5936149D02*
X25868741Y-5935117D01*
X25867991Y-5937187D02*
X25868355Y-5936149D01*
X25867649Y-5938232D02*
X25867991Y-5937187D01*
X25867329Y-5939282D02*
X25867649Y-5938232D01*
X25867032Y-5940338D02*
X25867329Y-5939282D01*
X25866758Y-5941397D02*
X25867032Y-5940338D01*
X25866506Y-5942460D02*
X25866758Y-5941397D01*
X25866278Y-5943526D02*
X25866506Y-5942460D01*
X25866072Y-5944595D02*
X25866278Y-5943526D01*
X25865891Y-5945665D02*
X25866072Y-5944595D01*
X25865733Y-5946736D02*
X25865891Y-5945665D01*
X25865598Y-5947807D02*
X25865733Y-5946736D01*
X25865488Y-5948879D02*
X25865598Y-5947807D01*
X25865402Y-5949949D02*
X25865488Y-5948879D01*
X25865340Y-5951018D02*
X25865402Y-5949949D01*
X25865303Y-5952085D02*
X25865340Y-5951018D01*
X25865290Y-5953149D02*
X25865303Y-5952085D01*
X25865290Y-7253149D02*
X25865290Y-5953149D01*
X25865289Y-7253149D02*
G75*
G03*
X25915290Y-7303149I49997J-3D01*
G01*
X28405811Y-7303122D02*
X25915290Y-7303149D01*
X28405811Y-7303127D02*
G75*
G03*
X28455811Y-7253122I-5J50005D01*
G01*
X28455811Y-7218099D02*
X28455811Y-7253122D01*
X28594661Y-7218099D02*
X28455811Y-7218099D01*
X28594664Y-7218096D02*
G75*
G03*
X28640811Y-7245572I46152J25025D01*
G01*
X29295915Y-7245572D02*
X28640811Y-7245572D01*
X29295915Y-7245571D02*
G75*
G03*
X29345915Y-7195572I1J49999D01*
G01*
X29345915Y-6535599D02*
X29345915Y-7195572D01*
X29345918Y-6535599D02*
G75*
G03*
X29323311Y-6492442I-52502J-3D01*
G01*
X29323311Y-6350599D02*
X29323311Y-6492442D01*
X29358415Y-6350599D02*
X29323311Y-6350599D01*
X29358415Y-6350601D02*
G75*
G03*
X29408415Y-6300599I1J49999D01*
G01*
X29408415Y-5000699D02*
X29408415Y-6300599D01*
X29408419Y-5000699D02*
G75*
G03*
X29358415Y-4950699I-50003J-3D01*
G01*
X29170261Y-4950699D02*
X29358415Y-4950699D01*
X29170261Y-4818199D02*
X29170261Y-4950699D01*
X29293415Y-4818199D02*
X29170261Y-4818199D01*
X29293415Y-4818201D02*
G75*
G03*
X29345915Y-4765699I1J52499D01*
G01*
X29345915Y-4135699D02*
X29345915Y-4765699D01*
X29345919Y-4135699D02*
G75*
G03*
X29293415Y-4083199I-52503J-3D01*
G01*
X29170261Y-4083199D02*
X29293415Y-4083199D01*
X29170261Y-4048122D02*
X29170261Y-4083199D01*
X29170256Y-4048122D02*
G75*
G03*
X29120261Y-3998122I-50000J0D01*
G01*
X27820261Y-3998122D02*
X29120261Y-3998122D01*
X27820261Y-3998117D02*
G75*
G03*
X27770261Y-4048122I5J-50005D01*
G01*
X27770261Y-5348122D02*
X27770261Y-4048122D01*
X27770266Y-5348122D02*
G75*
G03*
X27820261Y-5398122I50000J0D01*
G01*
X28008485Y-5398122D02*
X27820261Y-5398122D01*
X28008485Y-5903123D02*
X28008485Y-5398122D01*
X26923361Y-5903135D02*
X28008485Y-5903123D01*
X14961576Y-2093122D02*
X16261576Y-2093122D01*
X14961576Y-2093122D02*
G75*
G03*
X14911576Y-2143122I0J-50000D01*
G01*
X14911576Y-3443122D02*
X14911576Y-2143122D01*
X14911576Y-3443122D02*
G75*
G03*
X14961576Y-3493122I50000J0D01*
G01*
X16261576Y-3493122D02*
X14961576Y-3493122D01*
X16261576Y-3493122D02*
G75*
G03*
X16311576Y-3443122I0J50000D01*
G01*
X16311576Y-2143122D02*
X16311576Y-3443122D01*
X16311576Y-2143122D02*
G75*
G03*
X16261576Y-2093122I-50000J0D01*
G01*
X23534046Y-3998122D02*
X24834046Y-3998122D01*
X23534046Y-3998122D02*
G75*
G03*
X23484046Y-4048122I0J-50000D01*
G01*
X23484046Y-5348122D02*
X23484046Y-4048122D01*
X23484046Y-5348122D02*
G75*
G03*
X23534046Y-5398122I50000J0D01*
G01*
X24834046Y-5398122D02*
X23534046Y-5398122D01*
X24834046Y-5398122D02*
G75*
G03*
X24884046Y-5348122I0J50000D01*
G01*
X24884046Y-4048122D02*
X24884046Y-5348122D01*
X24884046Y-4048122D02*
G75*
G03*
X24834046Y-3998122I-50000J0D01*
G01*
X15914046Y-3998122D02*
X17214046Y-3998122D01*
X15914046Y-3998122D02*
G75*
G03*
X15864046Y-4048122I0J-50000D01*
G01*
X15864046Y-5348122D02*
X15864046Y-4048122D01*
X15864046Y-5348122D02*
G75*
G03*
X15914046Y-5398122I50000J0D01*
G01*
X17214046Y-5398122D02*
X15914046Y-5398122D01*
X17214046Y-5398122D02*
G75*
G03*
X17264046Y-5348122I0J50000D01*
G01*
X17264046Y-4048122D02*
X17264046Y-5348122D01*
X17264046Y-4048122D02*
G75*
G03*
X17214046Y-3998122I-50000J0D01*
G01*
X4982151Y-9445572D02*
X4352151Y-9445572D01*
X4982151Y-9445577D02*
G75*
G03*
X5034651Y-9393072I-5J52505D01*
G01*
X5034651Y-9208085D02*
X5034651Y-9393072D01*
X5305365Y-9208230D02*
X5034651Y-9208085D01*
X5307786Y-9208163D02*
X5305365Y-9208230D01*
X5310201Y-9208026D02*
X5307786Y-9208163D01*
X5311407Y-9207926D02*
X5310201Y-9208026D01*
X5312610Y-9207802D02*
X5311407Y-9207926D01*
X5313816Y-9207653D02*
X5312610Y-9207802D01*
X5315020Y-9207478D02*
X5313816Y-9207653D01*
X5316220Y-9207278D02*
X5315020Y-9207478D01*
X5317416Y-9207052D02*
X5316220Y-9207278D01*
X5318607Y-9206799D02*
X5317416Y-9207052D01*
X5319792Y-9206521D02*
X5318607Y-9206799D01*
X5320970Y-9206216D02*
X5319792Y-9206521D01*
X5322141Y-9205885D02*
X5320970Y-9206216D01*
X5323304Y-9205528D02*
X5322141Y-9205885D01*
X5324458Y-9205144D02*
X5323304Y-9205528D01*
X5325603Y-9204733D02*
X5324458Y-9205144D01*
X5326737Y-9204296D02*
X5325603Y-9204733D01*
X5327860Y-9203832D02*
X5326737Y-9204296D01*
X5328972Y-9203341D02*
X5327860Y-9203832D01*
X5330071Y-9202823D02*
X5328972Y-9203341D01*
X5331156Y-9202278D02*
X5330071Y-9202823D01*
X5332219Y-9201711D02*
X5331156Y-9202278D01*
X5333268Y-9201117D02*
X5332219Y-9201711D01*
X5334301Y-9200497D02*
X5333268Y-9201117D01*
X5335319Y-9199852D02*
X5334301Y-9200497D01*
X5336321Y-9199181D02*
X5335319Y-9199852D01*
X5337306Y-9198485D02*
X5336321Y-9199181D01*
X5338274Y-9197765D02*
X5337306Y-9198485D01*
X5339224Y-9197021D02*
X5338274Y-9197765D01*
X5340155Y-9196252D02*
X5339224Y-9197021D01*
X5341068Y-9195461D02*
X5340155Y-9196252D01*
X5341960Y-9194646D02*
X5341068Y-9195461D01*
X5342833Y-9193808D02*
X5341960Y-9194646D01*
X5343684Y-9192949D02*
X5342833Y-9193808D01*
X5344514Y-9192067D02*
X5343684Y-9192949D01*
X5345323Y-9191164D02*
X5344514Y-9192067D01*
X5346108Y-9190239D02*
X5345323Y-9191164D01*
X5346796Y-9189388D02*
X5346108Y-9190239D01*
X5347466Y-9188520D02*
X5346796Y-9189388D01*
X5348116Y-9187637D02*
X5347466Y-9188520D01*
X5348746Y-9186738D02*
X5348116Y-9187637D01*
X5349357Y-9185826D02*
X5348746Y-9186738D01*
X5349948Y-9184899D02*
X5349357Y-9185826D01*
X5350520Y-9183960D02*
X5349948Y-9184899D01*
X5351071Y-9183007D02*
X5350520Y-9183960D01*
X5351602Y-9182044D02*
X5351071Y-9183007D01*
X5352112Y-9181068D02*
X5351602Y-9182044D01*
X5352602Y-9180083D02*
X5352112Y-9181068D01*
X5353070Y-9179087D02*
X5352602Y-9180083D01*
X5353518Y-9178082D02*
X5353070Y-9179087D01*
X5353944Y-9177069D02*
X5353518Y-9178082D01*
X5354349Y-9176047D02*
X5353944Y-9177069D01*
X5354733Y-9175019D02*
X5354349Y-9176047D01*
X5355094Y-9173983D02*
X5354733Y-9175019D01*
X5355434Y-9172941D02*
X5355094Y-9173983D01*
X5355751Y-9171894D02*
X5355434Y-9172941D01*
X5356046Y-9170843D02*
X5355751Y-9171894D01*
X5356319Y-9169787D02*
X5356046Y-9170843D01*
X5356568Y-9168727D02*
X5356319Y-9169787D01*
X5356795Y-9167665D02*
X5356568Y-9168727D01*
X5356999Y-9166600D02*
X5356795Y-9167665D01*
X5357179Y-9165534D02*
X5356999Y-9166600D01*
X5357336Y-9164466D02*
X5357179Y-9165534D01*
X5357470Y-9163399D02*
X5357336Y-9164466D01*
X5357579Y-9162332D02*
X5357470Y-9163399D01*
X5357665Y-9161265D02*
X5357579Y-9162332D01*
X5357726Y-9160201D02*
X5357665Y-9161265D01*
X5357763Y-9159138D02*
X5357726Y-9160201D01*
X5357775Y-9158079D02*
X5357763Y-9159138D01*
X5357775Y-7858079D02*
X5357775Y-9158079D01*
X5357779Y-7858079D02*
G75*
G03*
X5307775Y-7808079I-50003J-3D01*
G01*
X1864650Y-7808079D02*
X5307775Y-7808079D01*
X1864650Y-7808079D02*
G75*
G03*
X1814650Y-7858079I0J-50000D01*
G01*
X1814650Y-9158079D02*
X1814650Y-7858079D01*
X1814650Y-9158079D02*
G75*
G03*
X1864650Y-9208079I50000J0D01*
G01*
X1899701Y-9208080D02*
X1864650Y-9208079D01*
X1899701Y-9393072D02*
X1899701Y-9208080D01*
X1899701Y-9393072D02*
G75*
G03*
X1952201Y-9445572I52500J0D01*
G01*
X2582201Y-9445572D02*
X1952201Y-9445572D01*
X2582201Y-9445577D02*
G75*
G03*
X2634701Y-9393072I-5J52505D01*
G01*
X2634701Y-9208094D02*
X2634701Y-9393072D01*
X4299651Y-9208096D02*
X2634701Y-9208094D01*
X4299651Y-9393072D02*
X4299651Y-9208096D01*
X4299656Y-9393072D02*
G75*
G03*
X4352151Y-9445572I52500J0D01*
G01*
X28794611Y-9445572D02*
X28164611Y-9445572D01*
X28794611Y-9445577D02*
G75*
G03*
X28847111Y-9393072I-5J52505D01*
G01*
X28847111Y-9208122D02*
X28847111Y-9393072D01*
X29596546Y-9208122D02*
X28847111Y-9208122D01*
X29596546Y-9208122D02*
G75*
G03*
X29646546Y-9158122I0J50000D01*
G01*
X29646546Y-7858122D02*
X29646546Y-9158122D01*
X29646546Y-7858122D02*
G75*
G03*
X29596546Y-7808122I-50000J0D01*
G01*
X28162111Y-7808122D02*
X29596546Y-7808122D01*
X28162111Y-7808117D02*
G75*
G03*
X28112111Y-7858122I5J-50005D01*
G01*
X28112111Y-9393072D02*
X28112111Y-7858122D01*
X28112116Y-9393072D02*
G75*
G03*
X28164611Y-9445572I52500J0D01*
G01*
X3893425Y-5168082D02*
X3893425Y-4228162D01*
X3893425Y-5168082D02*
G75*
G03*
X3993425Y-5168082I50000J0D01*
G01*
X3993425Y-4228162D02*
X3993425Y-5168082D01*
X3993425Y-4228162D02*
G75*
G03*
X3893425Y-4228162I-50000J0D01*
G01*
X11627796Y-7808122D02*
X12927796Y-7808122D01*
X11627796Y-7808122D02*
G75*
G03*
X11577796Y-7858122I0J-50000D01*
G01*
X11577796Y-9158122D02*
X11577796Y-7858122D01*
X11577796Y-9158122D02*
G75*
G03*
X11627796Y-9208122I50000J0D01*
G01*
X12927796Y-9208122D02*
X11627796Y-9208122D01*
X12927796Y-9208122D02*
G75*
G03*
X12977796Y-9158122I0J50000D01*
G01*
X12977796Y-7858122D02*
X12977796Y-9158122D01*
X12977796Y-7858122D02*
G75*
G03*
X12927796Y-7808122I-50000J0D01*
G01*
X4484046Y-3998122D02*
X5784046Y-3998122D01*
X4484046Y-3998122D02*
G75*
G03*
X4434046Y-4048122I0J-50000D01*
G01*
X4434046Y-5348122D02*
X4434046Y-4048122D01*
X4434046Y-5348122D02*
G75*
G03*
X4484046Y-5398122I50000J0D01*
G01*
X5784046Y-5398122D02*
X4484046Y-5398122D01*
X5784046Y-5398122D02*
G75*
G03*
X5834046Y-5348122I0J50000D01*
G01*
X5834046Y-4048122D02*
X5834046Y-5348122D01*
X5834046Y-4048122D02*
G75*
G03*
X5784046Y-3998122I-50000J0D01*
G01*
X19247796Y-7808122D02*
X20547796Y-7808122D01*
X19247796Y-7808122D02*
G75*
G03*
X19197796Y-7858122I0J-50000D01*
G01*
X19197796Y-9158122D02*
X19197796Y-7858122D01*
X19197796Y-9158122D02*
G75*
G03*
X19247796Y-9208122I50000J0D01*
G01*
X20547796Y-9208122D02*
X19247796Y-9208122D01*
X20547796Y-9208122D02*
G75*
G03*
X20597796Y-9158122I0J50000D01*
G01*
X20597796Y-7858122D02*
X20597796Y-9158122D01*
X20597796Y-7858122D02*
G75*
G03*
X20547796Y-7808122I-50000J0D01*
G01*
X17342796Y-7808122D02*
X18642796Y-7808122D01*
X17342796Y-7808122D02*
G75*
G03*
X17292796Y-7858122I0J-50000D01*
G01*
X17292796Y-9158122D02*
X17292796Y-7858122D01*
X17292796Y-9158122D02*
G75*
G03*
X17342796Y-9208122I50000J0D01*
G01*
X18642796Y-9208122D02*
X17342796Y-9208122D01*
X18642796Y-9208122D02*
G75*
G03*
X18692796Y-9158122I0J50000D01*
G01*
X18692796Y-7858122D02*
X18692796Y-9158122D01*
X18692796Y-7858122D02*
G75*
G03*
X18642796Y-7808122I-50000J0D01*
G01*
X3531576Y-2093122D02*
X4831576Y-2093122D01*
X3531576Y-2093122D02*
G75*
G03*
X3481576Y-2143122I0J-50000D01*
G01*
X3481576Y-3443122D02*
X3481576Y-2143122D01*
X3481576Y-3443122D02*
G75*
G03*
X3531576Y-3493122I50000J0D01*
G01*
X4831576Y-3493122D02*
X3531576Y-3493122D01*
X4831576Y-3493122D02*
G75*
G03*
X4881576Y-3443122I0J50000D01*
G01*
X4881576Y-2143122D02*
X4881576Y-3443122D01*
X4881576Y-2143122D02*
G75*
G03*
X4831576Y-2093122I-50000J0D01*
G01*
X18771576Y-2093122D02*
X20071576Y-2093122D01*
X18771576Y-2093122D02*
G75*
G03*
X18721576Y-2143122I0J-50000D01*
G01*
X18721576Y-3443122D02*
X18721576Y-2143122D01*
X18721576Y-3443122D02*
G75*
G03*
X18771576Y-3493122I50000J0D01*
G01*
X20071576Y-3493122D02*
X18771576Y-3493122D01*
X20071576Y-3493122D02*
G75*
G03*
X20121576Y-3443122I0J50000D01*
G01*
X20121576Y-2143122D02*
X20121576Y-3443122D01*
X20121576Y-2143122D02*
G75*
G03*
X20071576Y-2093122I-50000J0D01*
G01*
X3690896Y-5953122D02*
G75*
G03*
X3640901Y-5903122I-50000J0D01*
G01*
X1864702Y-5903122D02*
X3640901Y-5903122D01*
X1864702Y-5903122D02*
G75*
G03*
X1814702Y-5953122I0J-50000D01*
G01*
X1814702Y-7253122D02*
X1814702Y-5953122D01*
X1814702Y-7253122D02*
G75*
G03*
X1864702Y-7303122I50000J0D01*
G01*
X3640901Y-7303122D02*
X1864702Y-7303122D01*
X3640901Y-7303127D02*
G75*
G03*
X3690901Y-7253122I-5J50005D01*
G01*
X3690901Y-5953122D02*
X3690901Y-7253122D01*
X26341626Y-3445351D02*
X26341589Y-3444231D01*
X26341689Y-3446478D02*
X26341626Y-3445351D01*
X26341779Y-3447614D02*
X26341689Y-3446478D01*
X26341895Y-3448757D02*
X26341779Y-3447614D01*
X26342039Y-3449906D02*
X26341895Y-3448757D01*
X26342211Y-3451061D02*
X26342039Y-3449906D01*
X26342411Y-3452220D02*
X26342211Y-3451061D01*
X26342640Y-3453382D02*
X26342411Y-3452220D01*
X26342899Y-3454547D02*
X26342640Y-3453382D01*
X26343188Y-3455713D02*
X26342899Y-3454547D01*
X26343506Y-3456879D02*
X26343188Y-3455713D01*
X26343855Y-3458045D02*
X26343506Y-3456879D01*
X26344235Y-3459209D02*
X26343855Y-3458045D01*
X26344646Y-3460370D02*
X26344235Y-3459209D01*
X26345087Y-3461526D02*
X26344646Y-3460370D01*
X26345559Y-3462677D02*
X26345087Y-3461526D01*
X26346063Y-3463822D02*
X26345559Y-3462677D01*
X26346597Y-3464959D02*
X26346063Y-3463822D01*
X26347162Y-3466086D02*
X26346597Y-3464959D01*
X26347758Y-3467204D02*
X26347162Y-3466086D01*
X26348384Y-3468310D02*
X26347758Y-3467204D01*
X26349041Y-3469403D02*
X26348384Y-3468310D01*
X26349727Y-3470482D02*
X26349041Y-3469403D01*
X26350442Y-3471546D02*
X26349727Y-3470482D01*
X26351186Y-3472594D02*
X26350442Y-3471546D01*
X26351959Y-3473625D02*
X26351186Y-3472594D01*
X26352759Y-3474636D02*
X26351959Y-3473625D01*
X26353586Y-3475629D02*
X26352759Y-3474636D01*
X26354439Y-3476600D02*
X26353586Y-3475629D01*
X26355318Y-3477550D02*
X26354439Y-3476600D01*
X26356221Y-3478477D02*
X26355318Y-3477550D01*
X26357148Y-3479380D02*
X26356221Y-3478477D01*
X26358098Y-3480259D02*
X26357148Y-3479380D01*
X26359069Y-3481112D02*
X26358098Y-3480259D01*
X26360061Y-3481939D02*
X26359069Y-3481112D01*
X26361073Y-3482739D02*
X26360061Y-3481939D01*
X26362104Y-3483512D02*
X26361073Y-3482739D01*
X26363152Y-3484256D02*
X26362104Y-3483512D01*
X26364216Y-3484971D02*
X26363152Y-3484256D01*
X26365295Y-3485657D02*
X26364216Y-3484971D01*
X26366388Y-3486314D02*
X26365295Y-3485657D01*
X26367494Y-3486940D02*
X26366388Y-3486314D01*
X26368612Y-3487536D02*
X26367494Y-3486940D01*
X26369739Y-3488101D02*
X26368612Y-3487536D01*
X26370876Y-3488635D02*
X26369739Y-3488101D01*
X26372020Y-3489139D02*
X26370876Y-3488635D01*
X26373172Y-3489611D02*
X26372020Y-3489139D01*
X26374328Y-3490052D02*
X26373172Y-3489611D01*
X26375489Y-3490463D02*
X26374328Y-3490052D01*
X26376653Y-3490842D02*
X26375489Y-3490463D01*
X26377818Y-3491191D02*
X26376653Y-3490842D01*
X26378985Y-3491510D02*
X26377818Y-3491191D01*
X26380151Y-3491799D02*
X26378985Y-3491510D01*
X26381316Y-3492057D02*
X26380151Y-3491799D01*
X26382478Y-3492287D02*
X26381316Y-3492057D01*
X26383637Y-3492487D02*
X26382478Y-3492287D01*
X26384792Y-3492659D02*
X26383637Y-3492487D01*
X26385941Y-3492803D02*
X26384792Y-3492659D01*
X26387084Y-3492919D02*
X26385941Y-3492803D01*
X26388219Y-3493009D02*
X26387084Y-3492919D01*
X26389347Y-3493072D02*
X26388219Y-3493009D01*
X26390467Y-3493109D02*
X26389347Y-3493072D01*
X26426611Y-3493122D02*
X26390467Y-3493109D01*
X26426611Y-3678122D02*
X26426611Y-3493122D01*
X26426616Y-3678122D02*
G75*
G03*
X26479111Y-3730622I52500J0D01*
G01*
X27109111Y-3730622D02*
X26479111Y-3730622D01*
X27109111Y-3730627D02*
G75*
G03*
X27161611Y-3678122I-5J52505D01*
G01*
X27161611Y-3493122D02*
X27161611Y-3678122D01*
X28826511Y-3493122D02*
X27161611Y-3493122D01*
X28826511Y-3678122D02*
X28826511Y-3493122D01*
X28826516Y-3678122D02*
G75*
G03*
X28879011Y-3730622I52500J0D01*
G01*
X29509011Y-3730622D02*
X28879011Y-3730622D01*
X29509011Y-3730627D02*
G75*
G03*
X29561511Y-3678122I-5J52505D01*
G01*
X29561511Y-3493122D02*
X29561511Y-3678122D01*
X29596576Y-3493122D02*
X29561511Y-3493122D01*
X29596576Y-3493122D02*
G75*
G03*
X29646576Y-3443122I0J50000D01*
G01*
X29646576Y-2143122D02*
X29646576Y-3443122D01*
X29646576Y-2143122D02*
G75*
G03*
X29596576Y-2093122I-50000J0D01*
G01*
X26391599Y-2093115D02*
X29596576Y-2093122D01*
X26391599Y-2093114D02*
G75*
G03*
X26341599Y-2143115I-2J-49998D01*
G01*
X26341589Y-3444231D02*
X26341599Y-2143115D01*
X25439111Y-9713122D02*
X26977190Y-9713122D01*
X25439111Y-9713117D02*
G75*
G03*
X25389111Y-9763122I5J-50005D01*
G01*
X25389111Y-11063122D02*
X25389111Y-9763122D01*
X25389116Y-11063122D02*
G75*
G03*
X25439111Y-11113122I50000J0D01*
G01*
X26977190Y-11113122D02*
X25439111Y-11113122D01*
X26977190Y-11113126D02*
G75*
G03*
X27027190Y-11063122I-4J50004D01*
G01*
X27027190Y-9763122D02*
X27027190Y-11063122D01*
X27027186Y-9763122D02*
G75*
G03*
X26977190Y-9713122I-50000J0D01*
G01*
X20676576Y-2093122D02*
X21976576Y-2093122D01*
X20676576Y-2093122D02*
G75*
G03*
X20626576Y-2143122I0J-50000D01*
G01*
X20626576Y-3443122D02*
X20626576Y-2143122D01*
X20626576Y-3443122D02*
G75*
G03*
X20676576Y-3493122I50000J0D01*
G01*
X21976576Y-3493122D02*
X20676576Y-3493122D01*
X21976576Y-3493122D02*
G75*
G03*
X22026576Y-3443122I0J50000D01*
G01*
X22026576Y-2143122D02*
X22026576Y-3443122D01*
X22026576Y-2143122D02*
G75*
G03*
X21976576Y-2093122I-50000J0D01*
G01*
X11049102Y-1540622D02*
X11049102Y-1990622D01*
X11049106Y-1540622D02*
G75*
G03*
X10999102Y-1490622I-50000J0D01*
G01*
X10699102Y-1490622D02*
X10999102Y-1490622D01*
X10699102Y-1490618D02*
G75*
G03*
X10649102Y-1540622I4J-50004D01*
G01*
X10649102Y-1990622D02*
X10649102Y-1540622D01*
X10649102Y-1990622D02*
G75*
G03*
X11049102Y-1990622I200000J0D01*
G01*
X29899061Y-11179710D02*
G75*
G03*
X29740109Y-11365607I-13465J-149392D01*
G01*
X29508390Y-11365607D02*
X29740109Y-11365607D01*
X29508390Y-11365616D02*
G75*
G03*
X29408390Y-11465607I-4J-99996D01*
G01*
X29408390Y-11725622D02*
X29408390Y-11465607D01*
X29308390Y-11825626D02*
G75*
G03*
X29408390Y-11725622I-4J100004D01*
G01*
X23207873Y-11825622D02*
X29308390Y-11825622D01*
X23107906Y-11725622D02*
G75*
G03*
X23207873Y-11825622I100000J0D01*
G01*
X23107914Y-11465622D02*
X23107914Y-11725622D01*
X23107916Y-11465622D02*
G75*
G03*
X23007914Y-11365622I-100000J0D01*
G01*
X22894586Y-11365622D02*
X23007914Y-11365622D01*
X22794586Y-11265622D02*
G75*
G03*
X22894586Y-11365622I100000J0D01*
G01*
X22794586Y-11215622D02*
X22794586Y-11265622D01*
X22794586Y-11215622D02*
G75*
G03*
X22394586Y-11215622I-200000J0D01*
G01*
X22394586Y-11265622D02*
X22394586Y-11215622D01*
X22294586Y-11365621D02*
G75*
G03*
X22394586Y-11265622I1J99999D01*
G01*
X8928619Y-11365622D02*
X22294586Y-11365622D01*
X8828616Y-11265622D02*
G75*
G03*
X8928619Y-11365622I100000J0D01*
G01*
X8828619Y-11215622D02*
X8828619Y-11265622D01*
X8828619Y-11215622D02*
G75*
G03*
X8428619Y-11215622I-200000J0D01*
G01*
X8428619Y-11265622D02*
X8428619Y-11215622D01*
X8328619Y-11365624D02*
G75*
G03*
X8428619Y-11265622I-3J100003D01*
G01*
X8215290Y-11365622D02*
X8328619Y-11365622D01*
X8215290Y-11365626D02*
G75*
G03*
X8115290Y-11465622I-4J-99996D01*
G01*
X8115290Y-11725622D02*
X8115290Y-11465622D01*
X8015298Y-11825616D02*
G75*
G03*
X8115290Y-11725622I-1J99994D01*
G01*
X1914702Y-11825622D02*
X8015298Y-11825622D01*
X1814702Y-11725622D02*
G75*
G03*
X1914702Y-11825622I100000J0D01*
G01*
X1814702Y-11465622D02*
X1814702Y-11725622D01*
X1814702Y-11465622D02*
G75*
G03*
X1714702Y-11365622I-100000J0D01*
G01*
X1483025Y-11365622D02*
X1714702Y-11365622D01*
X1483025Y-11365622D02*
G75*
G03*
X1324076Y-11179711I-145488J36516D01*
G01*
X1324076Y-7855596D02*
X1324076Y-11179711D01*
X1474076Y-7705596D02*
G75*
G03*
X1324076Y-7855596I0J-150000D01*
G01*
X1474076Y-7705596D02*
G75*
G03*
X1474076Y-7305596I0J200000D01*
G01*
X1324076Y-7155596D02*
G75*
G03*
X1474076Y-7305596I150000J0D01*
G01*
X1324076Y-2031513D02*
X1324076Y-7155596D01*
X1324076Y-2031513D02*
G75*
G03*
X1481676Y-1840596I13461J149395D01*
G01*
X1519076Y-1840596D02*
X1481676Y-1840596D01*
X1519076Y-1840596D02*
G75*
G03*
X1619076Y-1740596I0J100000D01*
G01*
X1619076Y-1480622D02*
X1619076Y-1740596D01*
X1719076Y-1380622D02*
G75*
G03*
X1619076Y-1480622I0J-100000D01*
G01*
X4334102Y-1380622D02*
X1719076Y-1380622D01*
X4434106Y-1480622D02*
G75*
G03*
X4334102Y-1380622I-100000J0D01*
G01*
X4434102Y-1740622D02*
X4434102Y-1480622D01*
X4434102Y-1740622D02*
G75*
G03*
X4634102Y-1740622I100000J0D01*
G01*
X4634102Y-1550622D02*
X4634102Y-1740622D01*
X4794102Y-1390618D02*
G75*
G03*
X4634102Y-1550622I4J-160004D01*
G01*
X6224089Y-1390622D02*
X4794102Y-1390622D01*
X6384086Y-1550622D02*
G75*
G03*
X6224089Y-1390622I-160000J0D01*
G01*
X6384089Y-1740622D02*
X6384089Y-1550622D01*
X6384089Y-1740622D02*
G75*
G03*
X6584089Y-1740622I100000J0D01*
G01*
X6584089Y-1480622D02*
X6584089Y-1740622D01*
X6684089Y-1380625D02*
G75*
G03*
X6584089Y-1480622I-3J-99997D01*
G01*
X9299115Y-1380622D02*
X6684089Y-1380622D01*
X9399116Y-1480622D02*
G75*
G03*
X9299115Y-1380622I-100000J0D01*
G01*
X9399115Y-1740622D02*
X9399115Y-1480622D01*
X9399115Y-1740622D02*
G75*
G03*
X9599115Y-1740622I100000J0D01*
G01*
X9599115Y-1550622D02*
X9599115Y-1740622D01*
X9759115Y-1390621D02*
G75*
G03*
X9599115Y-1550622I1J-160001D01*
G01*
X12101305Y-1390622D02*
X9759115Y-1390622D01*
X12261306Y-1550622D02*
G75*
G03*
X12101305Y-1390622I-160000J0D01*
G01*
X12261305Y-1740622D02*
X12261305Y-1550622D01*
X12261305Y-1740622D02*
G75*
G03*
X12461305Y-1740622I100000J0D01*
G01*
X12461305Y-1480622D02*
X12461305Y-1740622D01*
X12561305Y-1380620D02*
G75*
G03*
X12461305Y-1480622I2J-100002D01*
G01*
X18661900Y-1380622D02*
X12561305Y-1380622D01*
X18761896Y-1480622D02*
G75*
G03*
X18661900Y-1380622I-100000J0D01*
G01*
X18761900Y-1740622D02*
X18761900Y-1480622D01*
X18761900Y-1740622D02*
G75*
G03*
X18961900Y-1740622I100000J0D01*
G01*
X18961900Y-1550622D02*
X18961900Y-1740622D01*
X19121900Y-1390625D02*
G75*
G03*
X18961900Y-1550622I-4J-159996D01*
G01*
X21464098Y-1390622D02*
X19121900Y-1390622D01*
X21624096Y-1550622D02*
G75*
G03*
X21464098Y-1390622I-160000J0D01*
G01*
X21624098Y-1740622D02*
X21624098Y-1550622D01*
X21624098Y-1740622D02*
G75*
G03*
X21824098Y-1740622I100000J0D01*
G01*
X21824098Y-1480622D02*
X21824098Y-1740622D01*
X21924098Y-1380623D02*
G75*
G03*
X21824098Y-1480622I-2J-99999D01*
G01*
X24539107Y-1380622D02*
X21924098Y-1380622D01*
X24639106Y-1480622D02*
G75*
G03*
X24539107Y-1380622I-100000J0D01*
G01*
X24639107Y-1740622D02*
X24639107Y-1480622D01*
X24639107Y-1740622D02*
G75*
G03*
X24839107Y-1740622I100000J0D01*
G01*
X24839107Y-1550622D02*
X24839107Y-1740622D01*
X24999107Y-1390622D02*
G75*
G03*
X24839107Y-1550622I-1J-160000D01*
G01*
X26429102Y-1390622D02*
X24999107Y-1390622D01*
X26589106Y-1550622D02*
G75*
G03*
X26429102Y-1390622I-160000J0D01*
G01*
X26589102Y-1740622D02*
X26589102Y-1550622D01*
X26589102Y-1740622D02*
G75*
G03*
X26789102Y-1740622I100000J0D01*
G01*
X26789102Y-1480622D02*
X26789102Y-1740622D01*
X26889102Y-1380618D02*
G75*
G03*
X26789102Y-1480622I4J-100004D01*
G01*
X29504111Y-1380622D02*
X26889102Y-1380622D01*
X29604116Y-1480622D02*
G75*
G03*
X29504111Y-1380622I-100000J0D01*
G01*
X29604111Y-1740596D02*
X29604111Y-1480622D01*
X29604102Y-1740596D02*
G75*
G03*
X29704111Y-1840596I100004J4D01*
G01*
X29741462Y-1840596D02*
X29704111Y-1840596D01*
X29741462Y-1840596D02*
G75*
G03*
X29899061Y-2031513I144134J-41526D01*
G01*
X29899061Y-7155622D02*
X29899061Y-2031513D01*
X29749061Y-7305627D02*
G75*
G03*
X29899061Y-7155622I-5J150005D01*
G01*
X29749061Y-7305622D02*
G75*
G03*
X29749061Y-7705622I5J-200000D01*
G01*
X29899056Y-7855622D02*
G75*
G03*
X29749061Y-7705622I-150000J0D01*
G01*
X29899061Y-11179711D02*
X29899061Y-7855622D01*
X17591625Y-11031304D02*
X17806992Y-9881250D01*
X18071731Y-9814506D02*
X17591625Y-11031304D01*
X17806992Y-9881250D02*
X18071731Y-9814506D01*
X14485296Y-5903122D02*
X15785296Y-5903122D01*
X14485296Y-5903122D02*
G75*
G03*
X14435296Y-5953122I0J-50000D01*
G01*
X14435296Y-7253122D02*
X14435296Y-5953122D01*
X14435296Y-7253122D02*
G75*
G03*
X14485296Y-7303122I50000J0D01*
G01*
X15785296Y-7303122D02*
X14485296Y-7303122D01*
X15785296Y-7303122D02*
G75*
G03*
X15835296Y-7253122I0J50000D01*
G01*
X15835296Y-5953122D02*
X15835296Y-7253122D01*
X15835296Y-5953122D02*
G75*
G03*
X15785296Y-5903122I-50000J0D01*
G01*
X23057811Y-9713122D02*
X24595890Y-9713122D01*
X23057811Y-9713117D02*
G75*
G03*
X23007811Y-9763122I5J-50005D01*
G01*
X23007811Y-11063122D02*
X23007811Y-9763122D01*
X23007816Y-11063122D02*
G75*
G03*
X23057811Y-11113122I50000J0D01*
G01*
X24595890Y-11113122D02*
X23057811Y-11113122D01*
X24595890Y-11113126D02*
G75*
G03*
X24645890Y-11063122I-4J50004D01*
G01*
X24645890Y-9763122D02*
X24645890Y-11063122D01*
X24645886Y-9763122D02*
G75*
G03*
X24595890Y-9713122I-50000J0D01*
G01*
X12580296Y-5903122D02*
X13880296Y-5903122D01*
X12580296Y-5903122D02*
G75*
G03*
X12530296Y-5953122I0J-50000D01*
G01*
X12530296Y-7253122D02*
X12530296Y-5953122D01*
X12530296Y-7253122D02*
G75*
G03*
X12580296Y-7303122I50000J0D01*
G01*
X13880296Y-7303122D02*
X12580296Y-7303122D01*
X13880296Y-7303122D02*
G75*
G03*
X13930296Y-7253122I0J50000D01*
G01*
X13930296Y-5953122D02*
X13930296Y-7253122D01*
X13930296Y-5953122D02*
G75*
G03*
X13880296Y-5903122I-50000J0D01*
G01*
X8770296Y-5903122D02*
X10070296Y-5903122D01*
X8770296Y-5903122D02*
G75*
G03*
X8720296Y-5953122I0J-50000D01*
G01*
X8720296Y-7253122D02*
X8720296Y-5953122D01*
X8720296Y-7253122D02*
G75*
G03*
X8770296Y-7303122I50000J0D01*
G01*
X10070296Y-7303122D02*
X8770296Y-7303122D01*
X10070296Y-7303122D02*
G75*
G03*
X10120296Y-7253122I0J50000D01*
G01*
X10120296Y-5953122D02*
X10120296Y-7253122D01*
X10120296Y-5953122D02*
G75*
G03*
X10070296Y-5903122I-50000J0D01*
G01*
X5334102Y-1540622D02*
X5334102Y-1990622D01*
X5334106Y-1540622D02*
G75*
G03*
X5284102Y-1490622I-50000J0D01*
G01*
X4984102Y-1490622D02*
X5284102Y-1490622D01*
X4984102Y-1490618D02*
G75*
G03*
X4934102Y-1540622I4J-50004D01*
G01*
X4934102Y-1990622D02*
X4934102Y-1540622D01*
X4934102Y-1990622D02*
G75*
G03*
X5334102Y-1990622I200000J0D01*
G01*
X24984946Y-8878052D02*
X24984946Y-8138132D01*
X24984946Y-8878052D02*
G75*
G03*
X25084946Y-8878052I50000J0D01*
G01*
X25084946Y-8138132D02*
X25084946Y-8878052D01*
X25084946Y-8138132D02*
G75*
G03*
X24984946Y-8138132I-50000J0D01*
G01*
X17503385Y-10644071D02*
X17302354Y-10106751D01*
X17454309Y-10022452D02*
X17503385Y-10644071D01*
X17302354Y-10106751D02*
X17454309Y-10022452D01*
X7341576Y-2093122D02*
X8641576Y-2093122D01*
X7341576Y-2093122D02*
G75*
G03*
X7291576Y-2143122I0J-50000D01*
G01*
X7291576Y-3443122D02*
X7291576Y-2143122D01*
X7291576Y-3443122D02*
G75*
G03*
X7341576Y-3493122I50000J0D01*
G01*
X8641576Y-3493122D02*
X7341576Y-3493122D01*
X8641576Y-3493122D02*
G75*
G03*
X8691576Y-3443122I0J50000D01*
G01*
X8691576Y-2143122D02*
X8691576Y-3443122D01*
X8691576Y-2143122D02*
G75*
G03*
X8641576Y-2093122I-50000J0D01*
G01*
X13056576Y-2093122D02*
X14356576Y-2093122D01*
X13056576Y-2093122D02*
G75*
G03*
X13006576Y-2143122I0J-50000D01*
G01*
X13006576Y-3443122D02*
X13006576Y-2143122D01*
X13006576Y-3443122D02*
G75*
G03*
X13056576Y-3493122I50000J0D01*
G01*
X14356576Y-3493122D02*
X13056576Y-3493122D01*
X14356576Y-3493122D02*
G75*
G03*
X14406576Y-3443122I0J50000D01*
G01*
X14406576Y-2143122D02*
X14406576Y-3443122D01*
X14406576Y-2143122D02*
G75*
G03*
X14356576Y-2093122I-50000J0D01*
G01*
X23057796Y-7808122D02*
X24357796Y-7808122D01*
X23057796Y-7808122D02*
G75*
G03*
X23007796Y-7858122I0J-50000D01*
G01*
X23007796Y-9158122D02*
X23007796Y-7858122D01*
X23007796Y-9158122D02*
G75*
G03*
X23057796Y-9208122I50000J0D01*
G01*
X24357796Y-9208122D02*
X23057796Y-9208122D01*
X24357796Y-9208122D02*
G75*
G03*
X24407796Y-9158122I0J50000D01*
G01*
X24407796Y-7858122D02*
X24407796Y-9158122D01*
X24407796Y-7858122D02*
G75*
G03*
X24357796Y-7808122I-50000J0D01*
G01*
X4245811Y-9713122D02*
X5783890Y-9713122D01*
X4245811Y-9713117D02*
G75*
G03*
X4195811Y-9763122I5J-50005D01*
G01*
X4195811Y-11063122D02*
X4195811Y-9763122D01*
X4195816Y-11063122D02*
G75*
G03*
X4245811Y-11113122I50000J0D01*
G01*
X5783890Y-11113122D02*
X4245811Y-11113122D01*
X5783890Y-11113126D02*
G75*
G03*
X5833890Y-11063122I-4J50004D01*
G01*
X5833890Y-9763122D02*
X5833890Y-11063122D01*
X5833886Y-9763122D02*
G75*
G03*
X5783890Y-9713122I-50000J0D01*
G01*
X20200296Y-5903122D02*
X21500296Y-5903122D01*
X20200296Y-5903122D02*
G75*
G03*
X20150296Y-5953122I0J-50000D01*
G01*
X20150296Y-7253122D02*
X20150296Y-5953122D01*
X20150296Y-7253122D02*
G75*
G03*
X20200296Y-7303122I50000J0D01*
G01*
X21500296Y-7303122D02*
X20200296Y-7303122D01*
X21500296Y-7303122D02*
G75*
G03*
X21550296Y-7253122I0J50000D01*
G01*
X21550296Y-5953122D02*
X21550296Y-7253122D01*
X21550296Y-5953122D02*
G75*
G03*
X21500296Y-5903122I-50000J0D01*
G01*
X20978011Y-9713122D02*
X20978011Y-9528068D01*
X20914665Y-9713122D02*
X20978011Y-9713122D01*
X20914665Y-9713121D02*
G75*
G03*
X20864665Y-9763122I1J-50001D01*
G01*
X20864665Y-11063122D02*
X20864665Y-9763122D01*
X20864666Y-11063122D02*
G75*
G03*
X20914665Y-11113122I50000J0D01*
G01*
X22214665Y-11113122D02*
X20914665Y-11113122D01*
X22214665Y-11113121D02*
G75*
G03*
X22264665Y-11063122I1J49999D01*
G01*
X22264665Y-9763122D02*
X22264665Y-11063122D01*
X22264666Y-9763122D02*
G75*
G03*
X22214665Y-9713122I-50000J0D01*
G01*
X21713011Y-9713122D02*
X22214665Y-9713122D01*
X21713011Y-9528068D02*
X21713011Y-9713122D01*
X21713010Y-9528068D02*
G75*
G03*
X21660511Y-9475568I-52504J-4D01*
G01*
X21030511Y-9475568D02*
X21660511Y-9475568D01*
X21030511Y-9475567D02*
G75*
G03*
X20978011Y-9528068I5J-52505D01*
G01*
X15437796Y-7808122D02*
X16737796Y-7808122D01*
X15437796Y-7808122D02*
G75*
G03*
X15387796Y-7858122I0J-50000D01*
G01*
X15387796Y-9158122D02*
X15387796Y-7858122D01*
X15387796Y-9158122D02*
G75*
G03*
X15437796Y-9208122I50000J0D01*
G01*
X16737796Y-9208122D02*
X15437796Y-9208122D01*
X16737796Y-9208122D02*
G75*
G03*
X16787796Y-9158122I0J50000D01*
G01*
X16787796Y-7858122D02*
X16787796Y-9158122D01*
X16787796Y-7858122D02*
G75*
G03*
X16737796Y-7808122I-50000J0D01*
G01*
X16866576Y-2093122D02*
X18166576Y-2093122D01*
X16866576Y-2093122D02*
G75*
G03*
X16816576Y-2143122I0J-50000D01*
G01*
X16816576Y-3443122D02*
X16816576Y-2143122D01*
X16816576Y-3443122D02*
G75*
G03*
X16866576Y-3493122I50000J0D01*
G01*
X18166576Y-3493122D02*
X16866576Y-3493122D01*
X18166576Y-3493122D02*
G75*
G03*
X18216576Y-3443122I0J50000D01*
G01*
X18216576Y-2143122D02*
X18216576Y-3443122D01*
X18216576Y-2143122D02*
G75*
G03*
X18166576Y-2093122I-50000J0D01*
G01*
X6865296Y-5903122D02*
X8165296Y-5903122D01*
X6865296Y-5903122D02*
G75*
G03*
X6815296Y-5953122I0J-50000D01*
G01*
X6815296Y-7253122D02*
X6815296Y-5953122D01*
X6815296Y-7253122D02*
G75*
G03*
X6865296Y-7303122I50000J0D01*
G01*
X8165296Y-7303122D02*
X6865296Y-7303122D01*
X8165296Y-7303122D02*
G75*
G03*
X8215296Y-7253122I0J50000D01*
G01*
X8215296Y-5953122D02*
X8215296Y-7253122D01*
X8215296Y-5953122D02*
G75*
G03*
X8165296Y-5903122I-50000J0D01*
G01*
X8294046Y-3998122D02*
X9594046Y-3998122D01*
X8294046Y-3998122D02*
G75*
G03*
X8244046Y-4048122I0J-50000D01*
G01*
X8244046Y-5348122D02*
X8244046Y-4048122D01*
X8244046Y-5348122D02*
G75*
G03*
X8294046Y-5398122I50000J0D01*
G01*
X9594046Y-5398122D02*
X8294046Y-5398122D01*
X9594046Y-5398122D02*
G75*
G03*
X9644046Y-5348122I0J50000D01*
G01*
X9644046Y-4048122D02*
X9644046Y-5348122D01*
X9644046Y-4048122D02*
G75*
G03*
X9594046Y-3998122I-50000J0D01*
G01*
X19724046Y-3998122D02*
X21024046Y-3998122D01*
X19724046Y-3998122D02*
G75*
G03*
X19674046Y-4048122I0J-50000D01*
G01*
X19674046Y-5348122D02*
X19674046Y-4048122D01*
X19674046Y-5348122D02*
G75*
G03*
X19724046Y-5398122I50000J0D01*
G01*
X21024046Y-5398122D02*
X19724046Y-5398122D01*
X21024046Y-5398122D02*
G75*
G03*
X21074046Y-5348122I0J50000D01*
G01*
X21074046Y-4048122D02*
X21074046Y-5348122D01*
X21074046Y-4048122D02*
G75*
G03*
X21024046Y-3998122I-50000J0D01*
G01*
X21629046Y-3998122D02*
X22929046Y-3998122D01*
X21629046Y-3998122D02*
G75*
G03*
X21579046Y-4048122I0J-50000D01*
G01*
X21579046Y-5348122D02*
X21579046Y-4048122D01*
X21579046Y-5348122D02*
G75*
G03*
X21629046Y-5398122I50000J0D01*
G01*
X22929046Y-5398122D02*
X21629046Y-5398122D01*
X22929046Y-5398122D02*
G75*
G03*
X22979046Y-5348122I0J50000D01*
G01*
X22979046Y-4048122D02*
X22979046Y-5348122D01*
X22979046Y-4048122D02*
G75*
G03*
X22929046Y-3998122I-50000J0D01*
G01*
X17242505Y-10145197D02*
X17371341Y-10453558D01*
X17117443Y-10238191D02*
X17242505Y-10145197D01*
X17371342Y-10453557D02*
G75*
G03*
X17117443Y-10238191I-1081756J-1017955D01*
G01*
X18295296Y-5903122D02*
X19595296Y-5903122D01*
X18295296Y-5903122D02*
G75*
G03*
X18245296Y-5953122I0J-50000D01*
G01*
X18245296Y-7253122D02*
X18245296Y-5953122D01*
X18245296Y-7253122D02*
G75*
G03*
X18295296Y-7303122I50000J0D01*
G01*
X19595296Y-7303122D02*
X18295296Y-7303122D01*
X19595296Y-7303122D02*
G75*
G03*
X19645296Y-7253122I0J50000D01*
G01*
X19645296Y-5953122D02*
X19645296Y-7253122D01*
X19645296Y-5953122D02*
G75*
G03*
X19595296Y-5903122I-50000J0D01*
G01*
X22581576Y-2093122D02*
X23881576Y-2093122D01*
X22581576Y-2093122D02*
G75*
G03*
X22531576Y-2143122I0J-50000D01*
G01*
X22531576Y-3443122D02*
X22531576Y-2143122D01*
X22531576Y-3443122D02*
G75*
G03*
X22581576Y-3493122I50000J0D01*
G01*
X23881576Y-3493122D02*
X22581576Y-3493122D01*
X23881576Y-3493122D02*
G75*
G03*
X23931576Y-3443122I0J50000D01*
G01*
X23931576Y-2143122D02*
X23931576Y-3443122D01*
X23931576Y-2143122D02*
G75*
G03*
X23881576Y-2093122I-50000J0D01*
G01*
X27820311Y-9713122D02*
X29358390Y-9713122D01*
X27820311Y-9713117D02*
G75*
G03*
X27770311Y-9763122I5J-50005D01*
G01*
X27770311Y-11063122D02*
X27770311Y-9763122D01*
X27770316Y-11063122D02*
G75*
G03*
X27820311Y-11113122I50000J0D01*
G01*
X29358390Y-11113122D02*
X27820311Y-11113122D01*
X29358390Y-11113126D02*
G75*
G03*
X29408390Y-11063122I-4J50004D01*
G01*
X29408390Y-9763122D02*
X29408390Y-11063122D01*
X29408386Y-9763122D02*
G75*
G03*
X29358390Y-9713122I-50000J0D01*
G01*
X2102804Y-3998122D02*
X3402804Y-3998122D01*
X2102804Y-3998120D02*
G75*
G03*
X2052804Y-4048122I2J-50002D01*
G01*
X2052804Y-5348122D02*
X2052804Y-4048122D01*
X2052806Y-5348122D02*
G75*
G03*
X2102804Y-5398122I50000J0D01*
G01*
X3402804Y-5398122D02*
X2102804Y-5398122D01*
X3402804Y-5398120D02*
G75*
G03*
X3452804Y-5348122I2J49998D01*
G01*
X3452804Y-4048122D02*
X3452804Y-5348122D01*
X3452806Y-4048122D02*
G75*
G03*
X3402804Y-3998122I-50000J0D01*
G01*
X25439046Y-3998122D02*
X26739046Y-3998122D01*
X25439046Y-3998122D02*
G75*
G03*
X25389046Y-4048122I0J-50000D01*
G01*
X25389046Y-5348122D02*
X25389046Y-4048122D01*
X25389046Y-5348122D02*
G75*
G03*
X25439046Y-5398122I50000J0D01*
G01*
X26739046Y-5398122D02*
X25439046Y-5398122D01*
X26739046Y-5398122D02*
G75*
G03*
X26789046Y-5348122I0J50000D01*
G01*
X26789046Y-4048122D02*
X26789046Y-5348122D01*
X26789046Y-4048122D02*
G75*
G03*
X26739046Y-3998122I-50000J0D01*
G01*
X17819046Y-3998122D02*
X19119046Y-3998122D01*
X17819046Y-3998122D02*
G75*
G03*
X17769046Y-4048122I0J-50000D01*
G01*
X17769046Y-5348122D02*
X17769046Y-4048122D01*
X17769046Y-5348122D02*
G75*
G03*
X17819046Y-5398122I50000J0D01*
G01*
X19119046Y-5398122D02*
X17819046Y-5398122D01*
X19119046Y-5398122D02*
G75*
G03*
X19169046Y-5348122I0J50000D01*
G01*
X19169046Y-4048122D02*
X19169046Y-5348122D01*
X19169046Y-4048122D02*
G75*
G03*
X19119046Y-3998122I-50000J0D01*
G01*
X5436576Y-2093122D02*
X6736576Y-2093122D01*
X5436576Y-2093122D02*
G75*
G03*
X5386576Y-2143122I0J-50000D01*
G01*
X5386576Y-3443122D02*
X5386576Y-2143122D01*
X5386576Y-3443122D02*
G75*
G03*
X5436576Y-3493122I50000J0D01*
G01*
X6736576Y-3493122D02*
X5436576Y-3493122D01*
X6736576Y-3493122D02*
G75*
G03*
X6786576Y-3443122I0J50000D01*
G01*
X6786576Y-2143122D02*
X6786576Y-3443122D01*
X6786576Y-2143122D02*
G75*
G03*
X6736576Y-2093122I-50000J0D01*
G01*
X14009046Y-3998122D02*
X15309046Y-3998122D01*
X14009046Y-3998122D02*
G75*
G03*
X13959046Y-4048122I0J-50000D01*
G01*
X13959046Y-5348122D02*
X13959046Y-4048122D01*
X13959046Y-5348122D02*
G75*
G03*
X14009046Y-5398122I50000J0D01*
G01*
X15309046Y-5398122D02*
X14009046Y-5398122D01*
X15309046Y-5398122D02*
G75*
G03*
X15359046Y-5348122I0J50000D01*
G01*
X15359046Y-4048122D02*
X15359046Y-5348122D01*
X15359046Y-4048122D02*
G75*
G03*
X15309046Y-3998122I-50000J0D01*
G01*
X4960296Y-5903122D02*
X6260296Y-5903122D01*
X4960296Y-5903122D02*
G75*
G03*
X4910296Y-5953122I0J-50000D01*
G01*
X4910296Y-7253122D02*
X4910296Y-5953122D01*
X4910296Y-7253122D02*
G75*
G03*
X4960296Y-7303122I50000J0D01*
G01*
X6260296Y-7303122D02*
X4960296Y-7303122D01*
X6260296Y-7303122D02*
G75*
G03*
X6310296Y-7253122I0J50000D01*
G01*
X6310296Y-5953122D02*
X6310296Y-7253122D01*
X6310296Y-5953122D02*
G75*
G03*
X6260296Y-5903122I-50000J0D01*
G01*
X12104046Y-3998122D02*
X13404046Y-3998122D01*
X12104046Y-3998122D02*
G75*
G03*
X12054046Y-4048122I0J-50000D01*
G01*
X12054046Y-5348122D02*
X12054046Y-4048122D01*
X12054046Y-5348122D02*
G75*
G03*
X12104046Y-5398122I50000J0D01*
G01*
X13404046Y-5398122D02*
X12104046Y-5398122D01*
X13404046Y-5398122D02*
G75*
G03*
X13454046Y-5348122I0J50000D01*
G01*
X13454046Y-4048122D02*
X13454046Y-5348122D01*
X13454046Y-4048122D02*
G75*
G03*
X13404046Y-3998122I-50000J0D01*
G01*
X17570093Y-10819232D02*
X17521813Y-9990060D01*
X17722842Y-9909027D02*
X17570093Y-10819232D01*
X17521813Y-9990060D02*
X17722842Y-9909027D01*
X9722796Y-7808122D02*
X11022796Y-7808122D01*
X9722796Y-7808122D02*
G75*
G03*
X9672796Y-7858122I0J-50000D01*
G01*
X9672796Y-9158122D02*
X9672796Y-7858122D01*
X9672796Y-9158122D02*
G75*
G03*
X9722796Y-9208122I50000J0D01*
G01*
X11022796Y-9208122D02*
X9722796Y-9208122D01*
X11022796Y-9208122D02*
G75*
G03*
X11072796Y-9158122I0J50000D01*
G01*
X11072796Y-7858122D02*
X11072796Y-9158122D01*
X11072796Y-7858122D02*
G75*
G03*
X11022796Y-7808122I-50000J0D01*
G01*
X20574106Y-1540622D02*
G75*
G03*
X20524102Y-1490622I-50000J0D01*
G01*
X20224102Y-1490622D02*
X20524102Y-1490622D01*
X20224102Y-1490618D02*
G75*
G03*
X20174102Y-1540622I4J-50004D01*
G01*
X20174102Y-1990622D02*
X20174102Y-1540622D01*
X20174102Y-1990622D02*
G75*
G03*
X20574102Y-1990622I200000J0D01*
G01*
X20574102Y-1540622D02*
X20574102Y-1990622D01*
X5912796Y-7808122D02*
X7212796Y-7808122D01*
X5912796Y-7808122D02*
G75*
G03*
X5862796Y-7858122I0J-50000D01*
G01*
X5862796Y-9158122D02*
X5862796Y-7858122D01*
X5862796Y-9158122D02*
G75*
G03*
X5912796Y-9208122I50000J0D01*
G01*
X7212796Y-9208122D02*
X5912796Y-9208122D01*
X7212796Y-9208122D02*
G75*
G03*
X7262796Y-9158122I0J50000D01*
G01*
X7262796Y-7858122D02*
X7262796Y-9158122D01*
X7262796Y-7858122D02*
G75*
G03*
X7212796Y-7808122I-50000J0D01*
G01*
X11151576Y-2093122D02*
X12451576Y-2093122D01*
X11151576Y-2093122D02*
G75*
G03*
X11101576Y-2143122I0J-50000D01*
G01*
X11101576Y-3443122D02*
X11101576Y-2143122D01*
X11101576Y-3443122D02*
G75*
G03*
X11151576Y-3493122I50000J0D01*
G01*
X12451576Y-3493122D02*
X11151576Y-3493122D01*
X12451576Y-3493122D02*
G75*
G03*
X12501576Y-3443122I0J50000D01*
G01*
X12501576Y-2143122D02*
X12501576Y-3443122D01*
X12501576Y-2143122D02*
G75*
G03*
X12451576Y-2093122I-50000J0D01*
G01*
X7817796Y-7808122D02*
X9117796Y-7808122D01*
X7817796Y-7808122D02*
G75*
G03*
X7767796Y-7858122I0J-50000D01*
G01*
X7767796Y-9158122D02*
X7767796Y-7858122D01*
X7767796Y-9158122D02*
G75*
G03*
X7817796Y-9208122I50000J0D01*
G01*
X9117796Y-9208122D02*
X7817796Y-9208122D01*
X9117796Y-9208122D02*
G75*
G03*
X9167796Y-9158122I0J50000D01*
G01*
X9167796Y-7858122D02*
X9167796Y-9158122D01*
X9167796Y-7858122D02*
G75*
G03*
X9117796Y-7808122I-50000J0D01*
G01*
X25889102Y-1990622D02*
X25889102Y-1540622D01*
X25889102Y-1990622D02*
G75*
G03*
X26289102Y-1990622I200000J0D01*
G01*
X26289102Y-1540622D02*
X26289102Y-1990622D01*
X26289106Y-1540622D02*
G75*
G03*
X26239102Y-1490622I-50000J0D01*
G01*
X25939102Y-1490622D02*
X26239102Y-1490622D01*
X25939102Y-1490618D02*
G75*
G03*
X25889102Y-1540622I4J-50004D01*
G01*
X24010296Y-5903122D02*
X25310296Y-5903122D01*
X24010296Y-5903122D02*
G75*
G03*
X23960296Y-5953122I0J-50000D01*
G01*
X23960296Y-7253122D02*
X23960296Y-5953122D01*
X23960296Y-7253122D02*
G75*
G03*
X24010296Y-7303122I50000J0D01*
G01*
X25310296Y-7303122D02*
X24010296Y-7303122D01*
X25310296Y-7303122D02*
G75*
G03*
X25360296Y-7253122I0J50000D01*
G01*
X25360296Y-5953122D02*
X25360296Y-7253122D01*
X25360296Y-5953122D02*
G75*
G03*
X25310296Y-5903122I-50000J0D01*
G01*
X1864702Y-9713122D02*
X3402781Y-9713122D01*
X1864702Y-9713122D02*
G75*
G03*
X1814702Y-9763122I0J-50000D01*
G01*
X1814702Y-11063122D02*
X1814702Y-9763122D01*
X1814702Y-11063122D02*
G75*
G03*
X1864702Y-11113122I50000J0D01*
G01*
X3402781Y-11113122D02*
X1864702Y-11113122D01*
X3402781Y-11113127D02*
G75*
G03*
X3452781Y-11063122I-5J50005D01*
G01*
X3452781Y-9763122D02*
X3452781Y-11063122D01*
X3452776Y-9763122D02*
G75*
G03*
X3402781Y-9713122I-50000J0D01*
G01*
X19788360Y-9528068D02*
G75*
G03*
X19735861Y-9475568I-52504J-4D01*
G01*
X19105861Y-9475568D02*
X19735861Y-9475568D01*
X19105861Y-9475567D02*
G75*
G03*
X19053361Y-9528068I5J-52505D01*
G01*
X19053361Y-10998068D02*
X19053361Y-9528068D01*
X19053370Y-10998068D02*
G75*
G03*
X19105861Y-11050568I52496J-4D01*
G01*
X19735861Y-11050568D02*
X19105861Y-11050568D01*
X19735861Y-11050577D02*
G75*
G03*
X19788361Y-10998068I-5J52505D01*
G01*
X19788361Y-9528068D02*
X19788361Y-10998068D01*
X27979611Y-7858122D02*
X27979611Y-9158122D01*
X27979606Y-7858122D02*
G75*
G03*
X27929611Y-7808122I-50000J0D01*
G01*
X25677171Y-7808122D02*
X27929611Y-7808122D01*
X25677171Y-7808117D02*
G75*
G03*
X25627171Y-7858122I5J-50005D01*
G01*
X25627171Y-9158122D02*
X25627171Y-7858122D01*
X25627176Y-9158122D02*
G75*
G03*
X25677171Y-9208122I50000J0D01*
G01*
X25712111Y-9208122D02*
X25677171Y-9208122D01*
X25712111Y-9393072D02*
X25712111Y-9208122D01*
X25712116Y-9393072D02*
G75*
G03*
X25764611Y-9445572I52500J0D01*
G01*
X26394611Y-9445572D02*
X25764611Y-9445572D01*
X26394611Y-9445577D02*
G75*
G03*
X26447111Y-9393072I-5J52505D01*
G01*
X26447111Y-9208122D02*
X26447111Y-9393072D01*
X27929611Y-9208122D02*
X26447111Y-9208122D01*
X27929611Y-9208127D02*
G75*
G03*
X27979611Y-9158122I-5J50005D01*
G01*
X16390296Y-5903122D02*
X17690296Y-5903122D01*
X16390296Y-5903122D02*
G75*
G03*
X16340296Y-5953122I0J-50000D01*
G01*
X16340296Y-7253122D02*
X16340296Y-5953122D01*
X16340296Y-7253122D02*
G75*
G03*
X16390296Y-7303122I50000J0D01*
G01*
X17690296Y-7303122D02*
X16390296Y-7303122D01*
X17690296Y-7303122D02*
G75*
G03*
X17740296Y-7253122I0J50000D01*
G01*
X17740296Y-5953122D02*
X17740296Y-7253122D01*
X17740296Y-5953122D02*
G75*
G03*
X17690296Y-5903122I-50000J0D01*
G01*
X9246576Y-2093122D02*
X10546576Y-2093122D01*
X9246576Y-2093122D02*
G75*
G03*
X9196576Y-2143122I0J-50000D01*
G01*
X9196576Y-3443122D02*
X9196576Y-2143122D01*
X9196576Y-3443122D02*
G75*
G03*
X9246576Y-3493122I50000J0D01*
G01*
X10546576Y-3493122D02*
X9246576Y-3493122D01*
X10546576Y-3493122D02*
G75*
G03*
X10596576Y-3443122I0J50000D01*
G01*
X10596576Y-2143122D02*
X10596576Y-3443122D01*
X10596576Y-2143122D02*
G75*
G03*
X10546576Y-2093122I-50000J0D01*
G01*
X6389046Y-3998122D02*
X7689046Y-3998122D01*
X6389046Y-3998122D02*
G75*
G03*
X6339046Y-4048122I0J-50000D01*
G01*
X6339046Y-5348122D02*
X6339046Y-4048122D01*
X6339046Y-5348122D02*
G75*
G03*
X6389046Y-5398122I50000J0D01*
G01*
X7689046Y-5398122D02*
X6389046Y-5398122D01*
X7689046Y-5398122D02*
G75*
G03*
X7739046Y-5348122I0J50000D01*
G01*
X7739046Y-4048122D02*
X7739046Y-5348122D01*
X7739046Y-4048122D02*
G75*
G03*
X7689046Y-3998122I-50000J0D01*
G01*
X13532796Y-7808122D02*
X14832796Y-7808122D01*
X13532796Y-7808122D02*
G75*
G03*
X13482796Y-7858122I0J-50000D01*
G01*
X13482796Y-9158122D02*
X13482796Y-7858122D01*
X13482796Y-9158122D02*
G75*
G03*
X13532796Y-9208122I50000J0D01*
G01*
X14832796Y-9208122D02*
X13532796Y-9208122D01*
X14832796Y-9208122D02*
G75*
G03*
X14882796Y-9158122I0J50000D01*
G01*
X14882796Y-7858122D02*
X14882796Y-9158122D01*
X14882796Y-7858122D02*
G75*
G03*
X14832796Y-7808122I-50000J0D01*
G01*
X13770811Y-9713122D02*
X16261511Y-9713122D01*
X13770811Y-9713117D02*
G75*
G03*
X13720811Y-9763122I5J-50005D01*
G01*
X13720811Y-11063122D02*
X13720811Y-9763122D01*
X13720816Y-11063122D02*
G75*
G03*
X13770811Y-11113122I50000J0D01*
G01*
X16261511Y-11113122D02*
X13770811Y-11113122D01*
X16261511Y-11113127D02*
G75*
G03*
X16311511Y-11063122I-5J50005D01*
G01*
X16311511Y-9763122D02*
X16311511Y-11063122D01*
X16311506Y-9763122D02*
G75*
G03*
X16261511Y-9713122I-50000J0D01*
G01*
X4250593Y-7073047D02*
X4250593Y-6133127D01*
X4250593Y-7073047D02*
G75*
G03*
X4350593Y-7073047I50000J0D01*
G01*
X4350593Y-6133127D02*
X4350593Y-7073047D01*
X4350593Y-6133127D02*
G75*
G03*
X4250593Y-6133127I-50000J0D01*
G01*
X6627211Y-9713122D02*
X8165290Y-9713122D01*
X6627211Y-9713117D02*
G75*
G03*
X6577211Y-9763122I5J-50005D01*
G01*
X6577211Y-11063122D02*
X6577211Y-9763122D01*
X6577206Y-11063122D02*
G75*
G03*
X6627211Y-11113122I50000J0D01*
G01*
X8165290Y-11113122D02*
X6627211Y-11113122D01*
X8165290Y-11113126D02*
G75*
G03*
X8215290Y-11063122I-4J50004D01*
G01*
X8215290Y-9763122D02*
X8215290Y-11063122D01*
X8215286Y-9763122D02*
G75*
G03*
X8165290Y-9713122I-50000J0D01*
G01*
X24486576Y-2093122D02*
X25786576Y-2093122D01*
X24486576Y-2093122D02*
G75*
G03*
X24436576Y-2143122I0J-50000D01*
G01*
X24436576Y-3443122D02*
X24436576Y-2143122D01*
X24436576Y-3443122D02*
G75*
G03*
X24486576Y-3493122I50000J0D01*
G01*
X25786576Y-3493122D02*
X24486576Y-3493122D01*
X25786576Y-3493122D02*
G75*
G03*
X25836576Y-3443122I0J50000D01*
G01*
X25836576Y-2143122D02*
X25836576Y-3443122D01*
X25836576Y-2143122D02*
G75*
G03*
X25786576Y-2093122I-50000J0D01*
G01*
X9094448Y-9475568D02*
X10204030Y-9475568D01*
X9094448Y-9475573D02*
G75*
G03*
X9041948Y-9528068I-1J-52499D01*
G01*
X9041948Y-10998068D02*
X9041948Y-9528068D01*
X9041950Y-10998068D02*
G75*
G03*
X9094448Y-11050568I52496J-4D01*
G01*
X10204030Y-11050568D02*
X9094448Y-11050568D01*
X10204030Y-11050575D02*
G75*
G03*
X10256530Y-10998068I-4J52504D01*
G01*
X10256530Y-9528068D02*
X10256530Y-10998068D01*
X10256530Y-9528068D02*
G75*
G03*
X10204030Y-9475568I-52504J-4D01*
G01*
X10675296Y-5903122D02*
X11975296Y-5903122D01*
X10675296Y-5903122D02*
G75*
G03*
X10625296Y-5953122I0J-50000D01*
G01*
X10625296Y-7253122D02*
X10625296Y-5953122D01*
X10625296Y-7253122D02*
G75*
G03*
X10675296Y-7303122I50000J0D01*
G01*
X11975296Y-7303122D02*
X10675296Y-7303122D01*
X11975296Y-7303122D02*
G75*
G03*
X12025296Y-7253122I0J50000D01*
G01*
X12025296Y-5953122D02*
X12025296Y-7253122D01*
X12025296Y-5953122D02*
G75*
G03*
X11975296Y-5903122I-50000J0D01*
G01*
X21152796Y-7808122D02*
X22452796Y-7808122D01*
X21152796Y-7808122D02*
G75*
G03*
X21102796Y-7858122I0J-50000D01*
G01*
X21102796Y-9158122D02*
X21102796Y-7858122D01*
X21102796Y-9158122D02*
G75*
G03*
X21152796Y-9208122I50000J0D01*
G01*
X22452796Y-9208122D02*
X21152796Y-9208122D01*
X22452796Y-9208122D02*
G75*
G03*
X22502796Y-9158122I0J50000D01*
G01*
X22502796Y-7858122D02*
X22502796Y-9158122D01*
X22502796Y-7858122D02*
G75*
G03*
X22452796Y-7808122I-50000J0D01*
G01*
X22105296Y-5903122D02*
X23405296Y-5903122D01*
X22105296Y-5903122D02*
G75*
G03*
X22055296Y-5953122I0J-50000D01*
G01*
X22055296Y-7253122D02*
X22055296Y-5953122D01*
X22055296Y-7253122D02*
G75*
G03*
X22105296Y-7303122I50000J0D01*
G01*
X23405296Y-7303122D02*
X22105296Y-7303122D01*
X23405296Y-7303122D02*
G75*
G03*
X23455296Y-7253122I0J50000D01*
G01*
X23455296Y-5953122D02*
X23455296Y-7253122D01*
X23455296Y-5953122D02*
G75*
G03*
X23405296Y-5903122I-50000J0D01*
G01*
X1571695Y-12146098D02*
X1571695Y-11946098D01*
X1619314Y-11946098D01*
X1647886Y-11955622D01*
X1666933Y-11974669D01*
X1676457Y-11993717D01*
X1685981Y-12031812D01*
X1685981Y-12060383D01*
X1676457Y-12098479D01*
X1666933Y-12117526D01*
X1647886Y-12136574D01*
X1619314Y-12146098D01*
X1571695Y-12146098D01*
X1771695Y-12146098D02*
X1771695Y-12012764D01*
X1771695Y-12050860D02*
X1781219Y-12031812D01*
X1790743Y-12022288D01*
X1809791Y-12012764D01*
X1828838Y-12012764D01*
X1895505Y-12146098D02*
X1895505Y-12012764D01*
X1895505Y-11946098D02*
X1885981Y-11955622D01*
X1895505Y-11965145D01*
X1905029Y-11955622D01*
X1895505Y-11946098D01*
X1895505Y-11965145D01*
X2019314Y-12146098D02*
X2000267Y-12136574D01*
X1990743Y-12117526D01*
X1990743Y-11946098D01*
X2124076Y-12146098D02*
X2105029Y-12136574D01*
X2095505Y-12117526D01*
X2095505Y-11946098D01*
X2352648Y-12146098D02*
X2352648Y-11946098D01*
X2419314Y-12088955D01*
X2485981Y-11946098D01*
X2485981Y-12146098D01*
X2666934Y-12146098D02*
X2666934Y-12041336D01*
X2657410Y-12022288D01*
X2638362Y-12012764D01*
X2600267Y-12012764D01*
X2581219Y-12022288D01*
X2666934Y-12136574D02*
X2647886Y-12146098D01*
X2600267Y-12146098D01*
X2581219Y-12136574D01*
X2571695Y-12117526D01*
X2571695Y-12098479D01*
X2581219Y-12079431D01*
X2600267Y-12069907D01*
X2647886Y-12069907D01*
X2666934Y-12060383D01*
X2762172Y-12012764D02*
X2762172Y-12212764D01*
X2762172Y-12022288D02*
X2781219Y-12012764D01*
X2819314Y-12012764D01*
X2838362Y-12022288D01*
X2847886Y-12031812D01*
X2857410Y-12050860D01*
X2857410Y-12108002D01*
X2847886Y-12127050D01*
X2838362Y-12136574D01*
X2819314Y-12146098D01*
X2781219Y-12146098D01*
X2762172Y-12136574D01*
X2943124Y-12127050D02*
X2952648Y-12136574D01*
X2943124Y-12146098D01*
X2933600Y-12136574D01*
X2943124Y-12127050D01*
X2943124Y-12146098D01*
X2943124Y-12022288D02*
X2952648Y-12031812D01*
X2943124Y-12041336D01*
X2933600Y-12031812D01*
X2943124Y-12022288D01*
X2943124Y-12041336D01*
M02*
