%TF.GenerationSoftware,KiCad,Pcbnew,(6.0.9)*%
%TF.CreationDate,2023-01-27T09:49:20+02:00*%
%TF.ProjectId,arc60_plate_gerbers,61726336-305f-4706-9c61-74655f676572,rev?*%
%TF.SameCoordinates,Original*%
%TF.FileFunction,Profile,NP*%
%FSLAX46Y46*%
G04 Gerber Fmt 4.6, Leading zero omitted, Abs format (unit mm)*
G04 Created by KiCad (PCBNEW (6.0.9)) date 2023-01-27 09:49:20*
%MOMM*%
%LPD*%
G01*
G04 APERTURE LIST*
%TA.AperFunction,Profile*%
%ADD10C,0.200000*%
%TD*%
G04 APERTURE END LIST*
D10*
X16265764Y-20931216D02*
X29265764Y-20931216D01*
X16265764Y-20931216D02*
G75*
G03*
X15765764Y-21431216I0J-500000D01*
G01*
X15765764Y-34431216D02*
X15765764Y-21431216D01*
X15765764Y-34431216D02*
G75*
G03*
X16265764Y-34931216I500000J0D01*
G01*
X29265764Y-34931216D02*
X16265764Y-34931216D01*
X29265764Y-34931216D02*
G75*
G03*
X29765764Y-34431216I0J500000D01*
G01*
X29765764Y-21431216D02*
X29765764Y-34431216D01*
X29765764Y-21431216D02*
G75*
G03*
X29265764Y-20931216I-500000J0D01*
G01*
X101990464Y-39981216D02*
X114990464Y-39981216D01*
X101990464Y-39981216D02*
G75*
G03*
X101490464Y-40481216I0J-500000D01*
G01*
X101490464Y-53481216D02*
X101490464Y-40481216D01*
X101490464Y-53481216D02*
G75*
G03*
X101990464Y-53981216I500000J0D01*
G01*
X114990464Y-53981216D02*
X101990464Y-53981216D01*
X114990464Y-53981216D02*
G75*
G03*
X115490464Y-53481216I0J500000D01*
G01*
X115490464Y-40481216D02*
X115490464Y-53481216D01*
X115490464Y-40481216D02*
G75*
G03*
X114990464Y-39981216I-500000J0D01*
G01*
X269233614Y-57230716D02*
X269233614Y-59031347D01*
X269233564Y-57230716D02*
G75*
G03*
X268708614Y-56705716I-525000J0D01*
G01*
X262408614Y-56705716D02*
X268708614Y-56705716D01*
X262408614Y-56705666D02*
G75*
G03*
X261883614Y-57230716I50J-525050D01*
G01*
X261883614Y-59031446D02*
X261883614Y-57230716D01*
X259177777Y-59029950D02*
X261883614Y-59031446D01*
X259153376Y-59030619D02*
X259177777Y-59029950D01*
X259129032Y-59032001D02*
X259153376Y-59030619D01*
X259116886Y-59033008D02*
X259129032Y-59032001D01*
X259104760Y-59034250D02*
X259116886Y-59033008D01*
X259092745Y-59035733D02*
X259104760Y-59034250D01*
X259080759Y-59037468D02*
X259092745Y-59035733D01*
X259068809Y-59039458D02*
X259080759Y-59037468D01*
X259056901Y-59041703D02*
X259068809Y-59039458D01*
X259045043Y-59044204D02*
X259056901Y-59041703D01*
X259033243Y-59046963D02*
X259045043Y-59044204D01*
X259021508Y-59049981D02*
X259033243Y-59046963D01*
X259009845Y-59053259D02*
X259021508Y-59049981D01*
X258998261Y-59056799D02*
X259009845Y-59053259D01*
X258986765Y-59060600D02*
X258998261Y-59056799D01*
X258975362Y-59064666D02*
X258986765Y-59060600D01*
X258964062Y-59068997D02*
X258975362Y-59064666D01*
X258952870Y-59073594D02*
X258964062Y-59068997D01*
X258941795Y-59078458D02*
X258952870Y-59073594D01*
X258930843Y-59083591D02*
X258941795Y-59078458D01*
X258920022Y-59088993D02*
X258930843Y-59083591D01*
X258909392Y-59094637D02*
X258920022Y-59088993D01*
X258898906Y-59100545D02*
X258909392Y-59094637D01*
X258888568Y-59106714D02*
X258898906Y-59100545D01*
X258878384Y-59113140D02*
X258888568Y-59106714D01*
X258868362Y-59119819D02*
X258878384Y-59113140D01*
X258858505Y-59126748D02*
X258868362Y-59119819D01*
X258848821Y-59133922D02*
X258858505Y-59126748D01*
X258839315Y-59141339D02*
X258848821Y-59133922D01*
X258829993Y-59148993D02*
X258839315Y-59141339D01*
X258820860Y-59156882D02*
X258829993Y-59148993D01*
X258811924Y-59165002D02*
X258820860Y-59156882D01*
X258803189Y-59173349D02*
X258811924Y-59165002D01*
X258794662Y-59181919D02*
X258803189Y-59173349D01*
X258786348Y-59190708D02*
X258794662Y-59181919D01*
X258778254Y-59199713D02*
X258786348Y-59190708D01*
X258770385Y-59208930D02*
X258778254Y-59199713D01*
X258763456Y-59217456D02*
X258770385Y-59208930D01*
X258756719Y-59226148D02*
X258763456Y-59217456D01*
X258750176Y-59234997D02*
X258756719Y-59226148D01*
X258743827Y-59243997D02*
X258750176Y-59234997D01*
X258737676Y-59253143D02*
X258743827Y-59243997D01*
X258731723Y-59262427D02*
X258737676Y-59253143D01*
X258725972Y-59271844D02*
X258731723Y-59262427D01*
X258720423Y-59281386D02*
X258725972Y-59271844D01*
X258715078Y-59291048D02*
X258720423Y-59281386D01*
X258709940Y-59300823D02*
X258715078Y-59291048D01*
X258705010Y-59310704D02*
X258709940Y-59300823D01*
X258700291Y-59320686D02*
X258705010Y-59310704D01*
X258695783Y-59330761D02*
X258700291Y-59320686D01*
X258691489Y-59340924D02*
X258695783Y-59330761D01*
X258687411Y-59351168D02*
X258691489Y-59340924D01*
X258683550Y-59361486D02*
X258687411Y-59351168D01*
X258679909Y-59371872D02*
X258683550Y-59361486D01*
X258676490Y-59382320D02*
X258679909Y-59371872D01*
X258673293Y-59392824D02*
X258676490Y-59382320D01*
X258670322Y-59403376D02*
X258673293Y-59392824D01*
X258667578Y-59413971D02*
X258670322Y-59403376D01*
X258665062Y-59424602D02*
X258667578Y-59413971D01*
X258662777Y-59435263D02*
X258665062Y-59424602D01*
X258660725Y-59445947D02*
X258662777Y-59435263D01*
X258658907Y-59456647D02*
X258660725Y-59445947D01*
X258657326Y-59467359D02*
X258658907Y-59456647D01*
X258655983Y-59478074D02*
X258657326Y-59467359D01*
X258654879Y-59488787D02*
X258655983Y-59478074D01*
X258654018Y-59499491D02*
X258654879Y-59488787D01*
X258653400Y-59510180D02*
X258654018Y-59499491D01*
X258653028Y-59520847D02*
X258653400Y-59510180D01*
X258652904Y-59531486D02*
X258653028Y-59520847D01*
X258652904Y-72531486D02*
X258652904Y-59531486D01*
X258652894Y-72531486D02*
G75*
G03*
X259152904Y-73031486I499970J-30D01*
G01*
X284058114Y-73031216D02*
X259152904Y-73031486D01*
X284058114Y-73031266D02*
G75*
G03*
X284558114Y-72531216I-50J500050D01*
G01*
X284558114Y-72180986D02*
X284558114Y-72531216D01*
X285946606Y-72180986D02*
X284558114Y-72180986D01*
X285946644Y-72180965D02*
G75*
G03*
X286408114Y-72455716I461520J250249D01*
G01*
X292959154Y-72455716D02*
X286408114Y-72455716D01*
X292959154Y-72455706D02*
G75*
G03*
X293459154Y-71955716I10J499990D01*
G01*
X293459154Y-65355986D02*
X293459154Y-71955716D01*
X293459183Y-65355986D02*
G75*
G03*
X293233114Y-64924421I-525019J-30D01*
G01*
X293233114Y-63505986D02*
X293233114Y-64924421D01*
X293584154Y-63505986D02*
X293233114Y-63505986D01*
X293584154Y-63506006D02*
G75*
G03*
X294084154Y-63005986I10J499990D01*
G01*
X294084154Y-50006986D02*
X294084154Y-63005986D01*
X294084194Y-50006986D02*
G75*
G03*
X293584154Y-49506986I-500030J-30D01*
G01*
X291702614Y-49506986D02*
X293584154Y-49506986D01*
X291702614Y-48181986D02*
X291702614Y-49506986D01*
X292934154Y-48181986D02*
X291702614Y-48181986D01*
X292934154Y-48182006D02*
G75*
G03*
X293459154Y-47656986I10J524990D01*
G01*
X293459154Y-41356986D02*
X293459154Y-47656986D01*
X293459194Y-41356986D02*
G75*
G03*
X292934154Y-40831986I-525030J-30D01*
G01*
X291702614Y-40831986D02*
X292934154Y-40831986D01*
X291702614Y-40481216D02*
X291702614Y-40831986D01*
X291702564Y-40481216D02*
G75*
G03*
X291202614Y-39981216I-500000J0D01*
G01*
X278202614Y-39981216D02*
X291202614Y-39981216D01*
X278202614Y-39981166D02*
G75*
G03*
X277702614Y-40481216I50J-500050D01*
G01*
X277702614Y-53481216D02*
X277702614Y-40481216D01*
X277702664Y-53481216D02*
G75*
G03*
X278202614Y-53981216I500000J0D01*
G01*
X280084854Y-53981216D02*
X278202614Y-53981216D01*
X280084854Y-59031233D02*
X280084854Y-53981216D01*
X269233614Y-59031347D02*
X280084854Y-59031233D01*
X149615764Y-20931216D02*
X162615764Y-20931216D01*
X149615764Y-20931216D02*
G75*
G03*
X149115764Y-21431216I0J-500000D01*
G01*
X149115764Y-34431216D02*
X149115764Y-21431216D01*
X149115764Y-34431216D02*
G75*
G03*
X149615764Y-34931216I500000J0D01*
G01*
X162615764Y-34931216D02*
X149615764Y-34931216D01*
X162615764Y-34931216D02*
G75*
G03*
X163115764Y-34431216I0J500000D01*
G01*
X163115764Y-21431216D02*
X163115764Y-34431216D01*
X163115764Y-21431216D02*
G75*
G03*
X162615764Y-20931216I-500000J0D01*
G01*
X235340464Y-39981216D02*
X248340464Y-39981216D01*
X235340464Y-39981216D02*
G75*
G03*
X234840464Y-40481216I0J-500000D01*
G01*
X234840464Y-53481216D02*
X234840464Y-40481216D01*
X234840464Y-53481216D02*
G75*
G03*
X235340464Y-53981216I500000J0D01*
G01*
X248340464Y-53981216D02*
X235340464Y-53981216D01*
X248340464Y-53981216D02*
G75*
G03*
X248840464Y-53481216I0J500000D01*
G01*
X248840464Y-40481216D02*
X248840464Y-53481216D01*
X248840464Y-40481216D02*
G75*
G03*
X248340464Y-39981216I-500000J0D01*
G01*
X159140464Y-39981216D02*
X172140464Y-39981216D01*
X159140464Y-39981216D02*
G75*
G03*
X158640464Y-40481216I0J-500000D01*
G01*
X158640464Y-53481216D02*
X158640464Y-40481216D01*
X158640464Y-53481216D02*
G75*
G03*
X159140464Y-53981216I500000J0D01*
G01*
X172140464Y-53981216D02*
X159140464Y-53981216D01*
X172140464Y-53981216D02*
G75*
G03*
X172640464Y-53481216I0J500000D01*
G01*
X172640464Y-40481216D02*
X172640464Y-53481216D01*
X172640464Y-40481216D02*
G75*
G03*
X172140464Y-39981216I-500000J0D01*
G01*
X49821514Y-94455716D02*
X43521514Y-94455716D01*
X49821514Y-94455766D02*
G75*
G03*
X50346514Y-93930716I-50J525050D01*
G01*
X50346514Y-92080845D02*
X50346514Y-93930716D01*
X53053653Y-92082296D02*
X50346514Y-92080845D01*
X53077862Y-92081629D02*
X53053653Y-92082296D01*
X53102014Y-92080256D02*
X53077862Y-92081629D01*
X53114065Y-92079257D02*
X53102014Y-92080256D01*
X53126096Y-92078023D02*
X53114065Y-92079257D01*
X53138162Y-92076532D02*
X53126096Y-92078023D01*
X53150200Y-92074784D02*
X53138162Y-92076532D01*
X53162202Y-92072779D02*
X53150200Y-92074784D01*
X53174160Y-92070515D02*
X53162202Y-92072779D01*
X53186068Y-92067990D02*
X53174160Y-92070515D01*
X53197917Y-92065205D02*
X53186068Y-92067990D01*
X53209700Y-92062159D02*
X53197917Y-92065205D01*
X53221410Y-92058849D02*
X53209700Y-92062159D01*
X53233039Y-92055275D02*
X53221410Y-92058849D01*
X53244581Y-92051436D02*
X53233039Y-92055275D01*
X53256026Y-92047332D02*
X53244581Y-92051436D01*
X53267369Y-92042960D02*
X53256026Y-92047332D01*
X53278602Y-92038320D02*
X53267369Y-92042960D01*
X53289716Y-92033411D02*
X53278602Y-92038320D01*
X53300706Y-92028232D02*
X53289716Y-92033411D01*
X53311562Y-92022781D02*
X53300706Y-92028232D01*
X53322191Y-92017108D02*
X53311562Y-92022781D01*
X53332676Y-92011170D02*
X53322191Y-92017108D01*
X53343011Y-92004972D02*
X53332676Y-92011170D01*
X53353191Y-91998518D02*
X53343011Y-92004972D01*
X53363210Y-91991810D02*
X53353191Y-91998518D01*
X53373061Y-91984853D02*
X53363210Y-91991810D01*
X53382739Y-91977651D02*
X53373061Y-91984853D01*
X53392238Y-91970206D02*
X53382739Y-91977651D01*
X53401552Y-91962524D02*
X53392238Y-91970206D01*
X53410676Y-91954607D02*
X53401552Y-91962524D01*
X53419602Y-91946459D02*
X53410676Y-91954607D01*
X53428327Y-91938084D02*
X53419602Y-91946459D01*
X53436842Y-91929486D02*
X53428327Y-91938084D01*
X53445143Y-91920668D02*
X53436842Y-91929486D01*
X53453225Y-91911635D02*
X53445143Y-91920668D01*
X53461080Y-91902389D02*
X53453225Y-91911635D01*
X53467962Y-91893875D02*
X53461080Y-91902389D01*
X53474655Y-91885199D02*
X53467962Y-91893875D01*
X53481155Y-91876366D02*
X53474655Y-91885199D01*
X53487461Y-91867383D02*
X53481155Y-91876366D01*
X53493572Y-91858255D02*
X53487461Y-91867383D01*
X53499484Y-91848991D02*
X53493572Y-91858255D01*
X53505197Y-91839595D02*
X53499484Y-91848991D01*
X53510708Y-91830074D02*
X53505197Y-91839595D01*
X53516017Y-91820435D02*
X53510708Y-91830074D01*
X53521120Y-91810684D02*
X53516017Y-91820435D01*
X53526016Y-91800828D02*
X53521120Y-91810684D01*
X53530703Y-91790872D02*
X53526016Y-91800828D01*
X53535179Y-91780824D02*
X53530703Y-91790872D01*
X53539443Y-91770689D02*
X53535179Y-91780824D01*
X53543493Y-91760474D02*
X53539443Y-91770689D01*
X53547327Y-91750186D02*
X53543493Y-91760474D01*
X53550942Y-91739831D02*
X53547327Y-91750186D01*
X53554337Y-91729414D02*
X53550942Y-91739831D01*
X53557511Y-91718944D02*
X53554337Y-91729414D01*
X53560462Y-91708425D02*
X53557511Y-91718944D01*
X53563186Y-91697865D02*
X53560462Y-91708425D01*
X53565684Y-91687270D02*
X53563186Y-91697865D01*
X53567952Y-91676646D02*
X53565684Y-91687270D01*
X53569990Y-91665999D02*
X53567952Y-91676646D01*
X53571794Y-91655336D02*
X53569990Y-91665999D01*
X53573364Y-91644664D02*
X53571794Y-91655336D01*
X53574698Y-91633988D02*
X53573364Y-91644664D01*
X53575793Y-91623316D02*
X53574698Y-91633988D01*
X53576648Y-91612653D02*
X53575793Y-91623316D01*
X53577261Y-91602006D02*
X53576648Y-91612653D01*
X53577631Y-91591382D02*
X53577261Y-91602006D01*
X53577754Y-91580786D02*
X53577631Y-91591382D01*
X53577754Y-78580786D02*
X53577754Y-91580786D01*
X53577794Y-78580786D02*
G75*
G03*
X53077754Y-78080786I-500030J-30D01*
G01*
X18646504Y-78080786D02*
X53077754Y-78080786D01*
X18646504Y-78080786D02*
G75*
G03*
X18146504Y-78580786I0J-500000D01*
G01*
X18146504Y-91580786D02*
X18146504Y-78580786D01*
X18146504Y-91580786D02*
G75*
G03*
X18646504Y-92080786I500000J0D01*
G01*
X18997014Y-92080795D02*
X18646504Y-92080786D01*
X18997014Y-93930716D02*
X18997014Y-92080795D01*
X18997014Y-93930716D02*
G75*
G03*
X19522014Y-94455716I525000J0D01*
G01*
X25822014Y-94455716D02*
X19522014Y-94455716D01*
X25822014Y-94455766D02*
G75*
G03*
X26347014Y-93930716I-50J525050D01*
G01*
X26347014Y-92080941D02*
X26347014Y-93930716D01*
X42996514Y-92080959D02*
X26347014Y-92080941D01*
X42996514Y-93930716D02*
X42996514Y-92080959D01*
X42996564Y-93930716D02*
G75*
G03*
X43521514Y-94455716I525000J0D01*
G01*
X287946114Y-94455716D02*
X281646114Y-94455716D01*
X287946114Y-94455766D02*
G75*
G03*
X288471114Y-93930716I-50J525050D01*
G01*
X288471114Y-92081216D02*
X288471114Y-93930716D01*
X295965464Y-92081216D02*
X288471114Y-92081216D01*
X295965464Y-92081216D02*
G75*
G03*
X296465464Y-91581216I0J500000D01*
G01*
X296465464Y-78581216D02*
X296465464Y-91581216D01*
X296465464Y-78581216D02*
G75*
G03*
X295965464Y-78081216I-500000J0D01*
G01*
X281621114Y-78081216D02*
X295965464Y-78081216D01*
X281621114Y-78081166D02*
G75*
G03*
X281121114Y-78581216I50J-500050D01*
G01*
X281121114Y-93930716D02*
X281121114Y-78581216D01*
X281121164Y-93930716D02*
G75*
G03*
X281646114Y-94455716I525000J0D01*
G01*
X38934254Y-51680816D02*
X38934254Y-42281616D01*
X38934254Y-51680816D02*
G75*
G03*
X39934254Y-51680816I500000J0D01*
G01*
X39934254Y-42281616D02*
X39934254Y-51680816D01*
X39934254Y-42281616D02*
G75*
G03*
X38934254Y-42281616I-500000J0D01*
G01*
X116277964Y-78081216D02*
X129277964Y-78081216D01*
X116277964Y-78081216D02*
G75*
G03*
X115777964Y-78581216I0J-500000D01*
G01*
X115777964Y-91581216D02*
X115777964Y-78581216D01*
X115777964Y-91581216D02*
G75*
G03*
X116277964Y-92081216I500000J0D01*
G01*
X129277964Y-92081216D02*
X116277964Y-92081216D01*
X129277964Y-92081216D02*
G75*
G03*
X129777964Y-91581216I0J500000D01*
G01*
X129777964Y-78581216D02*
X129777964Y-91581216D01*
X129777964Y-78581216D02*
G75*
G03*
X129277964Y-78081216I-500000J0D01*
G01*
X44840464Y-39981216D02*
X57840464Y-39981216D01*
X44840464Y-39981216D02*
G75*
G03*
X44340464Y-40481216I0J-500000D01*
G01*
X44340464Y-53481216D02*
X44340464Y-40481216D01*
X44340464Y-53481216D02*
G75*
G03*
X44840464Y-53981216I500000J0D01*
G01*
X57840464Y-53981216D02*
X44840464Y-53981216D01*
X57840464Y-53981216D02*
G75*
G03*
X58340464Y-53481216I0J500000D01*
G01*
X58340464Y-40481216D02*
X58340464Y-53481216D01*
X58340464Y-40481216D02*
G75*
G03*
X57840464Y-39981216I-500000J0D01*
G01*
X192477964Y-78081216D02*
X205477964Y-78081216D01*
X192477964Y-78081216D02*
G75*
G03*
X191977964Y-78581216I0J-500000D01*
G01*
X191977964Y-91581216D02*
X191977964Y-78581216D01*
X191977964Y-91581216D02*
G75*
G03*
X192477964Y-92081216I500000J0D01*
G01*
X205477964Y-92081216D02*
X192477964Y-92081216D01*
X205477964Y-92081216D02*
G75*
G03*
X205977964Y-91581216I0J500000D01*
G01*
X205977964Y-78581216D02*
X205977964Y-91581216D01*
X205977964Y-78581216D02*
G75*
G03*
X205477964Y-78081216I-500000J0D01*
G01*
X173427964Y-78081216D02*
X186427964Y-78081216D01*
X173427964Y-78081216D02*
G75*
G03*
X172927964Y-78581216I0J-500000D01*
G01*
X172927964Y-91581216D02*
X172927964Y-78581216D01*
X172927964Y-91581216D02*
G75*
G03*
X173427964Y-92081216I500000J0D01*
G01*
X186427964Y-92081216D02*
X173427964Y-92081216D01*
X186427964Y-92081216D02*
G75*
G03*
X186927964Y-91581216I0J500000D01*
G01*
X186927964Y-78581216D02*
X186927964Y-91581216D01*
X186927964Y-78581216D02*
G75*
G03*
X186427964Y-78081216I-500000J0D01*
G01*
X35315764Y-20931216D02*
X48315764Y-20931216D01*
X35315764Y-20931216D02*
G75*
G03*
X34815764Y-21431216I0J-500000D01*
G01*
X34815764Y-34431216D02*
X34815764Y-21431216D01*
X34815764Y-34431216D02*
G75*
G03*
X35315764Y-34931216I500000J0D01*
G01*
X48315764Y-34931216D02*
X35315764Y-34931216D01*
X48315764Y-34931216D02*
G75*
G03*
X48815764Y-34431216I0J500000D01*
G01*
X48815764Y-21431216D02*
X48815764Y-34431216D01*
X48815764Y-21431216D02*
G75*
G03*
X48315764Y-20931216I-500000J0D01*
G01*
X187715764Y-20931216D02*
X200715764Y-20931216D01*
X187715764Y-20931216D02*
G75*
G03*
X187215764Y-21431216I0J-500000D01*
G01*
X187215764Y-34431216D02*
X187215764Y-21431216D01*
X187215764Y-34431216D02*
G75*
G03*
X187715764Y-34931216I500000J0D01*
G01*
X200715764Y-34931216D02*
X187715764Y-34931216D01*
X200715764Y-34931216D02*
G75*
G03*
X201215764Y-34431216I0J500000D01*
G01*
X201215764Y-21431216D02*
X201215764Y-34431216D01*
X201215764Y-21431216D02*
G75*
G03*
X200715764Y-20931216I-500000J0D01*
G01*
X36908964Y-59531216D02*
G75*
G03*
X36409014Y-59031216I-500000J0D01*
G01*
X18647024Y-59031216D02*
X36409014Y-59031216D01*
X18647024Y-59031216D02*
G75*
G03*
X18147024Y-59531216I0J-500000D01*
G01*
X18147024Y-72531216D02*
X18147024Y-59531216D01*
X18147024Y-72531216D02*
G75*
G03*
X18647024Y-73031216I500000J0D01*
G01*
X36409014Y-73031216D02*
X18647024Y-73031216D01*
X36409014Y-73031266D02*
G75*
G03*
X36909014Y-72531216I-50J500050D01*
G01*
X36909014Y-59531216D02*
X36909014Y-72531216D01*
X263416261Y-34453506D02*
X263415887Y-34442314D01*
X263416892Y-34464785D02*
X263416261Y-34453506D01*
X263417787Y-34476143D02*
X263416892Y-34464785D01*
X263418950Y-34487572D02*
X263417787Y-34476143D01*
X263420389Y-34499064D02*
X263418950Y-34487572D01*
X263422107Y-34510609D02*
X263420389Y-34499064D01*
X263424111Y-34522197D02*
X263422107Y-34510609D01*
X263426405Y-34533821D02*
X263424111Y-34522197D01*
X263428993Y-34545469D02*
X263426405Y-34533821D01*
X263431878Y-34557130D02*
X263428993Y-34545469D01*
X263435065Y-34568795D02*
X263431878Y-34557130D01*
X263438555Y-34580452D02*
X263435065Y-34568795D01*
X263442351Y-34592090D02*
X263438555Y-34580452D01*
X263446456Y-34603698D02*
X263442351Y-34592090D01*
X263450870Y-34615263D02*
X263446456Y-34603698D01*
X263455594Y-34626775D02*
X263450870Y-34615263D01*
X263460627Y-34638220D02*
X263455594Y-34626775D01*
X263465970Y-34649587D02*
X263460627Y-34638220D01*
X263471622Y-34660863D02*
X263465970Y-34649587D01*
X263477580Y-34672037D02*
X263471622Y-34660863D01*
X263483842Y-34683096D02*
X263477580Y-34672037D01*
X263490406Y-34694028D02*
X263483842Y-34683096D01*
X263497266Y-34704821D02*
X263490406Y-34694028D01*
X263504420Y-34715463D02*
X263497266Y-34704821D01*
X263511862Y-34725942D02*
X263504420Y-34715463D01*
X263519587Y-34736246D02*
X263511862Y-34725942D01*
X263527587Y-34746365D02*
X263519587Y-34736246D01*
X263535858Y-34756287D02*
X263527587Y-34746365D01*
X263544391Y-34766002D02*
X263535858Y-34756287D01*
X263553178Y-34775500D02*
X263544391Y-34766002D01*
X263562211Y-34784769D02*
X263553178Y-34775500D01*
X263571480Y-34793802D02*
X263562211Y-34784769D01*
X263580978Y-34802589D02*
X263571480Y-34793802D01*
X263590693Y-34811122D02*
X263580978Y-34802589D01*
X263600615Y-34819393D02*
X263590693Y-34811122D01*
X263610734Y-34827393D02*
X263600615Y-34819393D01*
X263621038Y-34835118D02*
X263610734Y-34827393D01*
X263631517Y-34842560D02*
X263621038Y-34835118D01*
X263642159Y-34849714D02*
X263631517Y-34842560D01*
X263652952Y-34856574D02*
X263642159Y-34849714D01*
X263663884Y-34863138D02*
X263652952Y-34856574D01*
X263674943Y-34869400D02*
X263663884Y-34863138D01*
X263686117Y-34875358D02*
X263674943Y-34869400D01*
X263697393Y-34881009D02*
X263686117Y-34875358D01*
X263708760Y-34886353D02*
X263697393Y-34881009D01*
X263720205Y-34891386D02*
X263708760Y-34886353D01*
X263731717Y-34896110D02*
X263720205Y-34891386D01*
X263743282Y-34900524D02*
X263731717Y-34896110D01*
X263754890Y-34904629D02*
X263743282Y-34900524D01*
X263766528Y-34908425D02*
X263754890Y-34904629D01*
X263778185Y-34911915D02*
X263766528Y-34908425D01*
X263789850Y-34915102D02*
X263778185Y-34911915D01*
X263801511Y-34917987D02*
X263789850Y-34915102D01*
X263813159Y-34920575D02*
X263801511Y-34917987D01*
X263824782Y-34922869D02*
X263813159Y-34920575D01*
X263836371Y-34924873D02*
X263824782Y-34922869D01*
X263847916Y-34926591D02*
X263836371Y-34924873D01*
X263859408Y-34928030D02*
X263847916Y-34926591D01*
X263870837Y-34929193D02*
X263859408Y-34928030D01*
X263882195Y-34930088D02*
X263870837Y-34929193D01*
X263893474Y-34930719D02*
X263882195Y-34930088D01*
X263904666Y-34931093D02*
X263893474Y-34930719D01*
X264266114Y-34931216D02*
X263904666Y-34931093D01*
X264266114Y-36781216D02*
X264266114Y-34931216D01*
X264266164Y-36781216D02*
G75*
G03*
X264791114Y-37306216I525000J0D01*
G01*
X271091114Y-37306216D02*
X264791114Y-37306216D01*
X271091114Y-37306266D02*
G75*
G03*
X271616114Y-36781216I-50J525050D01*
G01*
X271616114Y-34931216D02*
X271616114Y-36781216D01*
X288265114Y-34931216D02*
X271616114Y-34931216D01*
X288265114Y-36781216D02*
X288265114Y-34931216D01*
X288265164Y-36781216D02*
G75*
G03*
X288790114Y-37306216I525000J0D01*
G01*
X295090114Y-37306216D02*
X288790114Y-37306216D01*
X295090114Y-37306266D02*
G75*
G03*
X295615114Y-36781216I-50J525050D01*
G01*
X295615114Y-34931216D02*
X295615114Y-36781216D01*
X295965764Y-34931216D02*
X295615114Y-34931216D01*
X295965764Y-34931216D02*
G75*
G03*
X296465764Y-34431216I0J500000D01*
G01*
X296465764Y-21431216D02*
X296465764Y-34431216D01*
X296465764Y-21431216D02*
G75*
G03*
X295965764Y-20931216I-500000J0D01*
G01*
X263915988Y-20931154D02*
X295965764Y-20931216D01*
X263915988Y-20931140D02*
G75*
G03*
X263415988Y-21431154I-24J-499976D01*
G01*
X263415887Y-34442314D02*
X263415988Y-21431154D01*
X254391114Y-97131216D02*
X269771904Y-97131216D01*
X254391114Y-97131166D02*
G75*
G03*
X253891114Y-97631216I50J-500050D01*
G01*
X253891114Y-110631216D02*
X253891114Y-97631216D01*
X253891164Y-110631216D02*
G75*
G03*
X254391114Y-111131216I500000J0D01*
G01*
X269771904Y-111131216D02*
X254391114Y-111131216D01*
X269771904Y-111131256D02*
G75*
G03*
X270271904Y-110631216I-40J500040D01*
G01*
X270271904Y-97631216D02*
X270271904Y-110631216D01*
X270271864Y-97631216D02*
G75*
G03*
X269771904Y-97131216I-500000J0D01*
G01*
X206765764Y-20931216D02*
X219765764Y-20931216D01*
X206765764Y-20931216D02*
G75*
G03*
X206265764Y-21431216I0J-500000D01*
G01*
X206265764Y-34431216D02*
X206265764Y-21431216D01*
X206265764Y-34431216D02*
G75*
G03*
X206765764Y-34931216I500000J0D01*
G01*
X219765764Y-34931216D02*
X206765764Y-34931216D01*
X219765764Y-34931216D02*
G75*
G03*
X220265764Y-34431216I0J500000D01*
G01*
X220265764Y-21431216D02*
X220265764Y-34431216D01*
X220265764Y-21431216D02*
G75*
G03*
X219765764Y-20931216I-500000J0D01*
G01*
X110491024Y-15406216D02*
X110491024Y-19906216D01*
X110491064Y-15406216D02*
G75*
G03*
X109991024Y-14906216I-500000J0D01*
G01*
X106991024Y-14906216D02*
X109991024Y-14906216D01*
X106991024Y-14906176D02*
G75*
G03*
X106491024Y-15406216I40J-500040D01*
G01*
X106491024Y-19906216D02*
X106491024Y-15406216D01*
X106491024Y-19906216D02*
G75*
G03*
X110491024Y-19906216I2000000J0D01*
G01*
X298990615Y-111797098D02*
G75*
G03*
X297401091Y-113656072I-134651J-1493918D01*
G01*
X295083904Y-113656072D02*
X297401091Y-113656072D01*
X295083904Y-113656156D02*
G75*
G03*
X294083904Y-114656072I-40J-999960D01*
G01*
X294083904Y-117256216D02*
X294083904Y-114656072D01*
X293083904Y-118256256D02*
G75*
G03*
X294083904Y-117256216I-40J1000040D01*
G01*
X232078733Y-118256216D02*
X293083904Y-118256216D01*
X231079064Y-117256216D02*
G75*
G03*
X232078733Y-118256216I1000000J0D01*
G01*
X231079144Y-114656216D02*
X231079144Y-117256216D01*
X231079164Y-114656216D02*
G75*
G03*
X230079144Y-113656216I-1000000J0D01*
G01*
X228945857Y-113656216D02*
X230079144Y-113656216D01*
X227945864Y-112656216D02*
G75*
G03*
X228945857Y-113656216I1000000J0D01*
G01*
X227945857Y-112156216D02*
X227945857Y-112656216D01*
X227945857Y-112156216D02*
G75*
G03*
X223945857Y-112156216I-2000000J0D01*
G01*
X223945857Y-112656216D02*
X223945857Y-112156216D01*
X222945857Y-113656209D02*
G75*
G03*
X223945857Y-112656216I7J999993D01*
G01*
X89286191Y-113656216D02*
X222945857Y-113656216D01*
X88286164Y-112656216D02*
G75*
G03*
X89286191Y-113656216I1000000J0D01*
G01*
X88286191Y-112156216D02*
X88286191Y-112656216D01*
X88286191Y-112156216D02*
G75*
G03*
X84286191Y-112156216I-2000000J0D01*
G01*
X84286191Y-112656216D02*
X84286191Y-112156216D01*
X83286191Y-113656243D02*
G75*
G03*
X84286191Y-112656216I-27J1000027D01*
G01*
X82152904Y-113656216D02*
X83286191Y-113656216D01*
X82152904Y-113656256D02*
G75*
G03*
X81152904Y-114656216I-40J-999960D01*
G01*
X81152904Y-117256216D02*
X81152904Y-114656216D01*
X80152977Y-118256156D02*
G75*
G03*
X81152904Y-117256216I-13J999940D01*
G01*
X19147024Y-118256216D02*
X80152977Y-118256216D01*
X18147024Y-117256216D02*
G75*
G03*
X19147024Y-118256216I1000000J0D01*
G01*
X18147024Y-114656216D02*
X18147024Y-117256216D01*
X18147024Y-114656216D02*
G75*
G03*
X17147024Y-113656216I-1000000J0D01*
G01*
X14830251Y-113656216D02*
X17147024Y-113656216D01*
X14830251Y-113656216D02*
G75*
G03*
X13240764Y-111797112I-1454875J365156D01*
G01*
X13240764Y-78555956D02*
X13240764Y-111797112D01*
X14740764Y-77055956D02*
G75*
G03*
X13240764Y-78555956I0J-1500000D01*
G01*
X14740764Y-77055956D02*
G75*
G03*
X14740764Y-73055956I0J2000000D01*
G01*
X13240764Y-71555956D02*
G75*
G03*
X14740764Y-73055956I1500000J0D01*
G01*
X13240764Y-20315130D02*
X13240764Y-71555956D01*
X13240764Y-20315130D02*
G75*
G03*
X14816760Y-18405956I134612J1493948D01*
G01*
X15190764Y-18405956D02*
X14816760Y-18405956D01*
X15190764Y-18405956D02*
G75*
G03*
X16190764Y-17405956I0J1000000D01*
G01*
X16190764Y-14806216D02*
X16190764Y-17405956D01*
X17190764Y-13806216D02*
G75*
G03*
X16190764Y-14806216I0J-1000000D01*
G01*
X43341024Y-13806216D02*
X17190764Y-13806216D01*
X44341064Y-14806216D02*
G75*
G03*
X43341024Y-13806216I-1000000J0D01*
G01*
X44341024Y-17406216D02*
X44341024Y-14806216D01*
X44341024Y-17406216D02*
G75*
G03*
X46341024Y-17406216I1000000J0D01*
G01*
X46341024Y-15506216D02*
X46341024Y-17406216D01*
X47941024Y-13906176D02*
G75*
G03*
X46341024Y-15506216I40J-1600040D01*
G01*
X62240894Y-13906216D02*
X47941024Y-13906216D01*
X63840864Y-15506216D02*
G75*
G03*
X62240894Y-13906216I-1600000J0D01*
G01*
X63840894Y-17406216D02*
X63840894Y-15506216D01*
X63840894Y-17406216D02*
G75*
G03*
X65840894Y-17406216I1000000J0D01*
G01*
X65840894Y-14806216D02*
X65840894Y-17406216D01*
X66840894Y-13806246D02*
G75*
G03*
X65840894Y-14806216I-30J-999970D01*
G01*
X92991154Y-13806216D02*
X66840894Y-13806216D01*
X93991164Y-14806216D02*
G75*
G03*
X92991154Y-13806216I-1000000J0D01*
G01*
X93991154Y-17406216D02*
X93991154Y-14806216D01*
X93991154Y-17406216D02*
G75*
G03*
X95991154Y-17406216I1000000J0D01*
G01*
X95991154Y-15506216D02*
X95991154Y-17406216D01*
X97591154Y-13906206D02*
G75*
G03*
X95991154Y-15506216I10J-1600010D01*
G01*
X121013048Y-13906216D02*
X97591154Y-13906216D01*
X122613064Y-15506216D02*
G75*
G03*
X121013048Y-13906216I-1600000J0D01*
G01*
X122613048Y-17406216D02*
X122613048Y-15506216D01*
X122613048Y-17406216D02*
G75*
G03*
X124613048Y-17406216I1000000J0D01*
G01*
X124613048Y-14806216D02*
X124613048Y-17406216D01*
X125613048Y-13806200D02*
G75*
G03*
X124613048Y-14806216I16J-1000016D01*
G01*
X186619000Y-13806216D02*
X125613048Y-13806216D01*
X187618964Y-14806216D02*
G75*
G03*
X186619000Y-13806216I-1000000J0D01*
G01*
X187619000Y-17406216D02*
X187619000Y-14806216D01*
X187619000Y-17406216D02*
G75*
G03*
X189619000Y-17406216I1000000J0D01*
G01*
X189619000Y-15506216D02*
X189619000Y-17406216D01*
X191219000Y-13906252D02*
G75*
G03*
X189619000Y-15506216I-36J-1599964D01*
G01*
X214640979Y-13906216D02*
X191219000Y-13906216D01*
X216240964Y-15506216D02*
G75*
G03*
X214640979Y-13906216I-1600000J0D01*
G01*
X216240979Y-17406216D02*
X216240979Y-15506216D01*
X216240979Y-17406216D02*
G75*
G03*
X218240979Y-17406216I1000000J0D01*
G01*
X218240979Y-14806216D02*
X218240979Y-17406216D01*
X219240979Y-13806231D02*
G75*
G03*
X218240979Y-14806216I-15J-999985D01*
G01*
X245391069Y-13806216D02*
X219240979Y-13806216D01*
X246391064Y-14806216D02*
G75*
G03*
X245391069Y-13806216I-1000000J0D01*
G01*
X246391069Y-17406216D02*
X246391069Y-14806216D01*
X246391069Y-17406216D02*
G75*
G03*
X248391069Y-17406216I1000000J0D01*
G01*
X248391069Y-15506216D02*
X248391069Y-17406216D01*
X249991069Y-13906221D02*
G75*
G03*
X248391069Y-15506216I-5J-1599995D01*
G01*
X264291024Y-13906216D02*
X249991069Y-13906216D01*
X265891064Y-15506216D02*
G75*
G03*
X264291024Y-13906216I-1600000J0D01*
G01*
X265891024Y-17406216D02*
X265891024Y-15506216D01*
X265891024Y-17406216D02*
G75*
G03*
X267891024Y-17406216I1000000J0D01*
G01*
X267891024Y-14806216D02*
X267891024Y-17406216D01*
X268891024Y-13806176D02*
G75*
G03*
X267891024Y-14806216I40J-1000040D01*
G01*
X295041114Y-13806216D02*
X268891024Y-13806216D01*
X296041164Y-14806216D02*
G75*
G03*
X295041114Y-13806216I-1000000J0D01*
G01*
X296041114Y-17405956D02*
X296041114Y-14806216D01*
X296041024Y-17405956D02*
G75*
G03*
X297041114Y-18405956I1000040J40D01*
G01*
X297414618Y-18405956D02*
X297041114Y-18405956D01*
X297414621Y-18405957D02*
G75*
G03*
X298990614Y-20315130I1441343J-415259D01*
G01*
X298990614Y-71556216D02*
X298990614Y-20315130D01*
X297490614Y-73056266D02*
G75*
G03*
X298990614Y-71556216I-50J1500050D01*
G01*
X297490614Y-73056216D02*
G75*
G03*
X297490614Y-77056216I50J-2000000D01*
G01*
X298990564Y-78556216D02*
G75*
G03*
X297490614Y-77056216I-1500000J0D01*
G01*
X298990614Y-111797112D02*
X298990614Y-78556216D01*
X175916245Y-110313035D02*
X178069918Y-98812501D01*
X180717307Y-98145056D02*
X175916245Y-110313035D01*
X178069918Y-98812501D02*
X180717307Y-98145056D01*
X144852964Y-59031216D02*
X157852964Y-59031216D01*
X144852964Y-59031216D02*
G75*
G03*
X144352964Y-59531216I0J-500000D01*
G01*
X144352964Y-72531216D02*
X144352964Y-59531216D01*
X144352964Y-72531216D02*
G75*
G03*
X144852964Y-73031216I500000J0D01*
G01*
X157852964Y-73031216D02*
X144852964Y-73031216D01*
X157852964Y-73031216D02*
G75*
G03*
X158352964Y-72531216I0J500000D01*
G01*
X158352964Y-59531216D02*
X158352964Y-72531216D01*
X158352964Y-59531216D02*
G75*
G03*
X157852964Y-59031216I-500000J0D01*
G01*
X230578114Y-97131216D02*
X245958904Y-97131216D01*
X230578114Y-97131166D02*
G75*
G03*
X230078114Y-97631216I50J-500050D01*
G01*
X230078114Y-110631216D02*
X230078114Y-97631216D01*
X230078164Y-110631216D02*
G75*
G03*
X230578114Y-111131216I500000J0D01*
G01*
X245958904Y-111131216D02*
X230578114Y-111131216D01*
X245958904Y-111131256D02*
G75*
G03*
X246458904Y-110631216I-40J500040D01*
G01*
X246458904Y-97631216D02*
X246458904Y-110631216D01*
X246458864Y-97631216D02*
G75*
G03*
X245958904Y-97131216I-500000J0D01*
G01*
X125802964Y-59031216D02*
X138802964Y-59031216D01*
X125802964Y-59031216D02*
G75*
G03*
X125302964Y-59531216I0J-500000D01*
G01*
X125302964Y-72531216D02*
X125302964Y-59531216D01*
X125302964Y-72531216D02*
G75*
G03*
X125802964Y-73031216I500000J0D01*
G01*
X138802964Y-73031216D02*
X125802964Y-73031216D01*
X138802964Y-73031216D02*
G75*
G03*
X139302964Y-72531216I0J500000D01*
G01*
X139302964Y-59531216D02*
X139302964Y-72531216D01*
X139302964Y-59531216D02*
G75*
G03*
X138802964Y-59031216I-500000J0D01*
G01*
X87702964Y-59031216D02*
X100702964Y-59031216D01*
X87702964Y-59031216D02*
G75*
G03*
X87202964Y-59531216I0J-500000D01*
G01*
X87202964Y-72531216D02*
X87202964Y-59531216D01*
X87202964Y-72531216D02*
G75*
G03*
X87702964Y-73031216I500000J0D01*
G01*
X100702964Y-73031216D02*
X87702964Y-73031216D01*
X100702964Y-73031216D02*
G75*
G03*
X101202964Y-72531216I0J500000D01*
G01*
X101202964Y-59531216D02*
X101202964Y-72531216D01*
X101202964Y-59531216D02*
G75*
G03*
X100702964Y-59031216I-500000J0D01*
G01*
X53341024Y-15406216D02*
X53341024Y-19906216D01*
X53341064Y-15406216D02*
G75*
G03*
X52841024Y-14906216I-500000J0D01*
G01*
X49841024Y-14906216D02*
X52841024Y-14906216D01*
X49841024Y-14906176D02*
G75*
G03*
X49341024Y-15406216I40J-500040D01*
G01*
X49341024Y-19906216D02*
X49341024Y-15406216D01*
X49341024Y-19906216D02*
G75*
G03*
X53341024Y-19906216I2000000J0D01*
G01*
X249849464Y-88780516D02*
X249849464Y-81381316D01*
X249849464Y-88780516D02*
G75*
G03*
X250849464Y-88780516I500000J0D01*
G01*
X250849464Y-81381316D02*
X250849464Y-88780516D01*
X250849464Y-81381316D02*
G75*
G03*
X249849464Y-81381316I-500000J0D01*
G01*
X175033849Y-106440709D02*
X173023535Y-101067513D01*
X174543090Y-100224520D02*
X175033849Y-106440709D01*
X173023535Y-101067513D02*
X174543090Y-100224520D01*
X73415764Y-20931216D02*
X86415764Y-20931216D01*
X73415764Y-20931216D02*
G75*
G03*
X72915764Y-21431216I0J-500000D01*
G01*
X72915764Y-34431216D02*
X72915764Y-21431216D01*
X72915764Y-34431216D02*
G75*
G03*
X73415764Y-34931216I500000J0D01*
G01*
X86415764Y-34931216D02*
X73415764Y-34931216D01*
X86415764Y-34931216D02*
G75*
G03*
X86915764Y-34431216I0J500000D01*
G01*
X86915764Y-21431216D02*
X86915764Y-34431216D01*
X86915764Y-21431216D02*
G75*
G03*
X86415764Y-20931216I-500000J0D01*
G01*
X130565764Y-20931216D02*
X143565764Y-20931216D01*
X130565764Y-20931216D02*
G75*
G03*
X130065764Y-21431216I0J-500000D01*
G01*
X130065764Y-34431216D02*
X130065764Y-21431216D01*
X130065764Y-34431216D02*
G75*
G03*
X130565764Y-34931216I500000J0D01*
G01*
X143565764Y-34931216D02*
X130565764Y-34931216D01*
X143565764Y-34931216D02*
G75*
G03*
X144065764Y-34431216I0J500000D01*
G01*
X144065764Y-21431216D02*
X144065764Y-34431216D01*
X144065764Y-21431216D02*
G75*
G03*
X143565764Y-20931216I-500000J0D01*
G01*
X230577964Y-78081216D02*
X243577964Y-78081216D01*
X230577964Y-78081216D02*
G75*
G03*
X230077964Y-78581216I0J-500000D01*
G01*
X230077964Y-91581216D02*
X230077964Y-78581216D01*
X230077964Y-91581216D02*
G75*
G03*
X230577964Y-92081216I500000J0D01*
G01*
X243577964Y-92081216D02*
X230577964Y-92081216D01*
X243577964Y-92081216D02*
G75*
G03*
X244077964Y-91581216I0J500000D01*
G01*
X244077964Y-78581216D02*
X244077964Y-91581216D01*
X244077964Y-78581216D02*
G75*
G03*
X243577964Y-78081216I-500000J0D01*
G01*
X42458114Y-97131216D02*
X57838904Y-97131216D01*
X42458114Y-97131166D02*
G75*
G03*
X41958114Y-97631216I50J-500050D01*
G01*
X41958114Y-110631216D02*
X41958114Y-97631216D01*
X41958164Y-110631216D02*
G75*
G03*
X42458114Y-111131216I500000J0D01*
G01*
X57838904Y-111131216D02*
X42458114Y-111131216D01*
X57838904Y-111131256D02*
G75*
G03*
X58338904Y-110631216I-40J500040D01*
G01*
X58338904Y-97631216D02*
X58338904Y-110631216D01*
X58338864Y-97631216D02*
G75*
G03*
X57838904Y-97131216I-500000J0D01*
G01*
X202002964Y-59031216D02*
X215002964Y-59031216D01*
X202002964Y-59031216D02*
G75*
G03*
X201502964Y-59531216I0J-500000D01*
G01*
X201502964Y-72531216D02*
X201502964Y-59531216D01*
X201502964Y-72531216D02*
G75*
G03*
X202002964Y-73031216I500000J0D01*
G01*
X215002964Y-73031216D02*
X202002964Y-73031216D01*
X215002964Y-73031216D02*
G75*
G03*
X215502964Y-72531216I0J500000D01*
G01*
X215502964Y-59531216D02*
X215502964Y-72531216D01*
X215502964Y-59531216D02*
G75*
G03*
X215002964Y-59031216I-500000J0D01*
G01*
X209780114Y-97131216D02*
X209780114Y-95280676D01*
X209146654Y-97131216D02*
X209780114Y-97131216D01*
X209146654Y-97131206D02*
G75*
G03*
X208646654Y-97631216I10J-500010D01*
G01*
X208646654Y-110631216D02*
X208646654Y-97631216D01*
X208646664Y-110631216D02*
G75*
G03*
X209146654Y-111131216I500000J0D01*
G01*
X222146654Y-111131216D02*
X209146654Y-111131216D01*
X222146654Y-111131206D02*
G75*
G03*
X222646654Y-110631216I10J499990D01*
G01*
X222646654Y-97631216D02*
X222646654Y-110631216D01*
X222646664Y-97631216D02*
G75*
G03*
X222146654Y-97131216I-500000J0D01*
G01*
X217130114Y-97131216D02*
X222146654Y-97131216D01*
X217130114Y-95280676D02*
X217130114Y-97131216D01*
X217130104Y-95280676D02*
G75*
G03*
X216605114Y-94755676I-525040J-40D01*
G01*
X210305114Y-94755676D02*
X216605114Y-94755676D01*
X210305114Y-94755666D02*
G75*
G03*
X209780114Y-95280676I50J-525050D01*
G01*
X154377964Y-78081216D02*
X167377964Y-78081216D01*
X154377964Y-78081216D02*
G75*
G03*
X153877964Y-78581216I0J-500000D01*
G01*
X153877964Y-91581216D02*
X153877964Y-78581216D01*
X153877964Y-91581216D02*
G75*
G03*
X154377964Y-92081216I500000J0D01*
G01*
X167377964Y-92081216D02*
X154377964Y-92081216D01*
X167377964Y-92081216D02*
G75*
G03*
X167877964Y-91581216I0J500000D01*
G01*
X167877964Y-78581216D02*
X167877964Y-91581216D01*
X167877964Y-78581216D02*
G75*
G03*
X167377964Y-78081216I-500000J0D01*
G01*
X168665764Y-20931216D02*
X181665764Y-20931216D01*
X168665764Y-20931216D02*
G75*
G03*
X168165764Y-21431216I0J-500000D01*
G01*
X168165764Y-34431216D02*
X168165764Y-21431216D01*
X168165764Y-34431216D02*
G75*
G03*
X168665764Y-34931216I500000J0D01*
G01*
X181665764Y-34931216D02*
X168665764Y-34931216D01*
X181665764Y-34931216D02*
G75*
G03*
X182165764Y-34431216I0J500000D01*
G01*
X182165764Y-21431216D02*
X182165764Y-34431216D01*
X182165764Y-21431216D02*
G75*
G03*
X181665764Y-20931216I-500000J0D01*
G01*
X68652964Y-59031216D02*
X81652964Y-59031216D01*
X68652964Y-59031216D02*
G75*
G03*
X68152964Y-59531216I0J-500000D01*
G01*
X68152964Y-72531216D02*
X68152964Y-59531216D01*
X68152964Y-72531216D02*
G75*
G03*
X68652964Y-73031216I500000J0D01*
G01*
X81652964Y-73031216D02*
X68652964Y-73031216D01*
X81652964Y-73031216D02*
G75*
G03*
X82152964Y-72531216I0J500000D01*
G01*
X82152964Y-59531216D02*
X82152964Y-72531216D01*
X82152964Y-59531216D02*
G75*
G03*
X81652964Y-59031216I-500000J0D01*
G01*
X82940464Y-39981216D02*
X95940464Y-39981216D01*
X82940464Y-39981216D02*
G75*
G03*
X82440464Y-40481216I0J-500000D01*
G01*
X82440464Y-53481216D02*
X82440464Y-40481216D01*
X82440464Y-53481216D02*
G75*
G03*
X82940464Y-53981216I500000J0D01*
G01*
X95940464Y-53981216D02*
X82940464Y-53981216D01*
X95940464Y-53981216D02*
G75*
G03*
X96440464Y-53481216I0J500000D01*
G01*
X96440464Y-40481216D02*
X96440464Y-53481216D01*
X96440464Y-40481216D02*
G75*
G03*
X95940464Y-39981216I-500000J0D01*
G01*
X197240464Y-39981216D02*
X210240464Y-39981216D01*
X197240464Y-39981216D02*
G75*
G03*
X196740464Y-40481216I0J-500000D01*
G01*
X196740464Y-53481216D02*
X196740464Y-40481216D01*
X196740464Y-53481216D02*
G75*
G03*
X197240464Y-53981216I500000J0D01*
G01*
X210240464Y-53981216D02*
X197240464Y-53981216D01*
X210240464Y-53981216D02*
G75*
G03*
X210740464Y-53481216I0J500000D01*
G01*
X210740464Y-40481216D02*
X210740464Y-53481216D01*
X210740464Y-40481216D02*
G75*
G03*
X210240464Y-39981216I-500000J0D01*
G01*
X216290464Y-39981216D02*
X229290464Y-39981216D01*
X216290464Y-39981216D02*
G75*
G03*
X215790464Y-40481216I0J-500000D01*
G01*
X215790464Y-53481216D02*
X215790464Y-40481216D01*
X215790464Y-53481216D02*
G75*
G03*
X216290464Y-53981216I500000J0D01*
G01*
X229290464Y-53981216D02*
X216290464Y-53981216D01*
X229290464Y-53981216D02*
G75*
G03*
X229790464Y-53481216I0J500000D01*
G01*
X229790464Y-40481216D02*
X229790464Y-53481216D01*
X229790464Y-40481216D02*
G75*
G03*
X229290464Y-39981216I-500000J0D01*
G01*
X172425051Y-101451966D02*
X173713413Y-104535578D01*
X171174431Y-102381907D02*
X172425051Y-101451966D01*
X173713422Y-104535570D02*
G75*
G03*
X171174431Y-102381907I-10817558J-10179546D01*
G01*
X182952964Y-59031216D02*
X195952964Y-59031216D01*
X182952964Y-59031216D02*
G75*
G03*
X182452964Y-59531216I0J-500000D01*
G01*
X182452964Y-72531216D02*
X182452964Y-59531216D01*
X182452964Y-72531216D02*
G75*
G03*
X182952964Y-73031216I500000J0D01*
G01*
X195952964Y-73031216D02*
X182952964Y-73031216D01*
X195952964Y-73031216D02*
G75*
G03*
X196452964Y-72531216I0J500000D01*
G01*
X196452964Y-59531216D02*
X196452964Y-72531216D01*
X196452964Y-59531216D02*
G75*
G03*
X195952964Y-59031216I-500000J0D01*
G01*
X225815764Y-20931216D02*
X238815764Y-20931216D01*
X225815764Y-20931216D02*
G75*
G03*
X225315764Y-21431216I0J-500000D01*
G01*
X225315764Y-34431216D02*
X225315764Y-21431216D01*
X225315764Y-34431216D02*
G75*
G03*
X225815764Y-34931216I500000J0D01*
G01*
X238815764Y-34931216D02*
X225815764Y-34931216D01*
X238815764Y-34931216D02*
G75*
G03*
X239315764Y-34431216I0J500000D01*
G01*
X239315764Y-21431216D02*
X239315764Y-34431216D01*
X239315764Y-21431216D02*
G75*
G03*
X238815764Y-20931216I-500000J0D01*
G01*
X278203114Y-97131216D02*
X293583904Y-97131216D01*
X278203114Y-97131166D02*
G75*
G03*
X277703114Y-97631216I50J-500050D01*
G01*
X277703114Y-110631216D02*
X277703114Y-97631216D01*
X277703164Y-110631216D02*
G75*
G03*
X278203114Y-111131216I500000J0D01*
G01*
X293583904Y-111131216D02*
X278203114Y-111131216D01*
X293583904Y-111131256D02*
G75*
G03*
X294083904Y-110631216I-40J500040D01*
G01*
X294083904Y-97631216D02*
X294083904Y-110631216D01*
X294083864Y-97631216D02*
G75*
G03*
X293583904Y-97131216I-500000J0D01*
G01*
X21028044Y-39981216D02*
X34028044Y-39981216D01*
X21028044Y-39981196D02*
G75*
G03*
X20528044Y-40481216I20J-500020D01*
G01*
X20528044Y-53481216D02*
X20528044Y-40481216D01*
X20528064Y-53481216D02*
G75*
G03*
X21028044Y-53981216I500000J0D01*
G01*
X34028044Y-53981216D02*
X21028044Y-53981216D01*
X34028044Y-53981196D02*
G75*
G03*
X34528044Y-53481216I20J499980D01*
G01*
X34528044Y-40481216D02*
X34528044Y-53481216D01*
X34528064Y-40481216D02*
G75*
G03*
X34028044Y-39981216I-500000J0D01*
G01*
X254390464Y-39981216D02*
X267390464Y-39981216D01*
X254390464Y-39981216D02*
G75*
G03*
X253890464Y-40481216I0J-500000D01*
G01*
X253890464Y-53481216D02*
X253890464Y-40481216D01*
X253890464Y-53481216D02*
G75*
G03*
X254390464Y-53981216I500000J0D01*
G01*
X267390464Y-53981216D02*
X254390464Y-53981216D01*
X267390464Y-53981216D02*
G75*
G03*
X267890464Y-53481216I0J500000D01*
G01*
X267890464Y-40481216D02*
X267890464Y-53481216D01*
X267890464Y-40481216D02*
G75*
G03*
X267390464Y-39981216I-500000J0D01*
G01*
X178190464Y-39981216D02*
X191190464Y-39981216D01*
X178190464Y-39981216D02*
G75*
G03*
X177690464Y-40481216I0J-500000D01*
G01*
X177690464Y-53481216D02*
X177690464Y-40481216D01*
X177690464Y-53481216D02*
G75*
G03*
X178190464Y-53981216I500000J0D01*
G01*
X191190464Y-53981216D02*
X178190464Y-53981216D01*
X191190464Y-53981216D02*
G75*
G03*
X191690464Y-53481216I0J500000D01*
G01*
X191690464Y-40481216D02*
X191690464Y-53481216D01*
X191690464Y-40481216D02*
G75*
G03*
X191190464Y-39981216I-500000J0D01*
G01*
X54365764Y-20931216D02*
X67365764Y-20931216D01*
X54365764Y-20931216D02*
G75*
G03*
X53865764Y-21431216I0J-500000D01*
G01*
X53865764Y-34431216D02*
X53865764Y-21431216D01*
X53865764Y-34431216D02*
G75*
G03*
X54365764Y-34931216I500000J0D01*
G01*
X67365764Y-34931216D02*
X54365764Y-34931216D01*
X67365764Y-34931216D02*
G75*
G03*
X67865764Y-34431216I0J500000D01*
G01*
X67865764Y-21431216D02*
X67865764Y-34431216D01*
X67865764Y-21431216D02*
G75*
G03*
X67365764Y-20931216I-500000J0D01*
G01*
X140090464Y-39981216D02*
X153090464Y-39981216D01*
X140090464Y-39981216D02*
G75*
G03*
X139590464Y-40481216I0J-500000D01*
G01*
X139590464Y-53481216D02*
X139590464Y-40481216D01*
X139590464Y-53481216D02*
G75*
G03*
X140090464Y-53981216I500000J0D01*
G01*
X153090464Y-53981216D02*
X140090464Y-53981216D01*
X153090464Y-53981216D02*
G75*
G03*
X153590464Y-53481216I0J500000D01*
G01*
X153590464Y-40481216D02*
X153590464Y-53481216D01*
X153590464Y-40481216D02*
G75*
G03*
X153090464Y-39981216I-500000J0D01*
G01*
X49602964Y-59031216D02*
X62602964Y-59031216D01*
X49602964Y-59031216D02*
G75*
G03*
X49102964Y-59531216I0J-500000D01*
G01*
X49102964Y-72531216D02*
X49102964Y-59531216D01*
X49102964Y-72531216D02*
G75*
G03*
X49602964Y-73031216I500000J0D01*
G01*
X62602964Y-73031216D02*
X49602964Y-73031216D01*
X62602964Y-73031216D02*
G75*
G03*
X63102964Y-72531216I0J500000D01*
G01*
X63102964Y-59531216D02*
X63102964Y-72531216D01*
X63102964Y-59531216D02*
G75*
G03*
X62602964Y-59031216I-500000J0D01*
G01*
X121040464Y-39981216D02*
X134040464Y-39981216D01*
X121040464Y-39981216D02*
G75*
G03*
X120540464Y-40481216I0J-500000D01*
G01*
X120540464Y-53481216D02*
X120540464Y-40481216D01*
X120540464Y-53481216D02*
G75*
G03*
X121040464Y-53981216I500000J0D01*
G01*
X134040464Y-53981216D02*
X121040464Y-53981216D01*
X134040464Y-53981216D02*
G75*
G03*
X134540464Y-53481216I0J500000D01*
G01*
X134540464Y-40481216D02*
X134540464Y-53481216D01*
X134540464Y-40481216D02*
G75*
G03*
X134040464Y-39981216I-500000J0D01*
G01*
X175700933Y-108192319D02*
X175218128Y-99900597D01*
X177228423Y-99090267D02*
X175700933Y-108192319D01*
X175218128Y-99900597D02*
X177228423Y-99090267D01*
X97227964Y-78081216D02*
X110227964Y-78081216D01*
X97227964Y-78081216D02*
G75*
G03*
X96727964Y-78581216I0J-500000D01*
G01*
X96727964Y-91581216D02*
X96727964Y-78581216D01*
X96727964Y-91581216D02*
G75*
G03*
X97227964Y-92081216I500000J0D01*
G01*
X110227964Y-92081216D02*
X97227964Y-92081216D01*
X110227964Y-92081216D02*
G75*
G03*
X110727964Y-91581216I0J500000D01*
G01*
X110727964Y-78581216D02*
X110727964Y-91581216D01*
X110727964Y-78581216D02*
G75*
G03*
X110227964Y-78081216I-500000J0D01*
G01*
X205741064Y-15406216D02*
G75*
G03*
X205241024Y-14906216I-500000J0D01*
G01*
X202241024Y-14906216D02*
X205241024Y-14906216D01*
X202241024Y-14906176D02*
G75*
G03*
X201741024Y-15406216I40J-500040D01*
G01*
X201741024Y-19906216D02*
X201741024Y-15406216D01*
X201741024Y-19906216D02*
G75*
G03*
X205741024Y-19906216I2000000J0D01*
G01*
X205741024Y-15406216D02*
X205741024Y-19906216D01*
X59127964Y-78081216D02*
X72127964Y-78081216D01*
X59127964Y-78081216D02*
G75*
G03*
X58627964Y-78581216I0J-500000D01*
G01*
X58627964Y-91581216D02*
X58627964Y-78581216D01*
X58627964Y-91581216D02*
G75*
G03*
X59127964Y-92081216I500000J0D01*
G01*
X72127964Y-92081216D02*
X59127964Y-92081216D01*
X72127964Y-92081216D02*
G75*
G03*
X72627964Y-91581216I0J500000D01*
G01*
X72627964Y-78581216D02*
X72627964Y-91581216D01*
X72627964Y-78581216D02*
G75*
G03*
X72127964Y-78081216I-500000J0D01*
G01*
X111515764Y-20931216D02*
X124515764Y-20931216D01*
X111515764Y-20931216D02*
G75*
G03*
X111015764Y-21431216I0J-500000D01*
G01*
X111015764Y-34431216D02*
X111015764Y-21431216D01*
X111015764Y-34431216D02*
G75*
G03*
X111515764Y-34931216I500000J0D01*
G01*
X124515764Y-34931216D02*
X111515764Y-34931216D01*
X124515764Y-34931216D02*
G75*
G03*
X125015764Y-34431216I0J500000D01*
G01*
X125015764Y-21431216D02*
X125015764Y-34431216D01*
X125015764Y-21431216D02*
G75*
G03*
X124515764Y-20931216I-500000J0D01*
G01*
X78177964Y-78081216D02*
X91177964Y-78081216D01*
X78177964Y-78081216D02*
G75*
G03*
X77677964Y-78581216I0J-500000D01*
G01*
X77677964Y-91581216D02*
X77677964Y-78581216D01*
X77677964Y-91581216D02*
G75*
G03*
X78177964Y-92081216I500000J0D01*
G01*
X91177964Y-92081216D02*
X78177964Y-92081216D01*
X91177964Y-92081216D02*
G75*
G03*
X91677964Y-91581216I0J500000D01*
G01*
X91677964Y-78581216D02*
X91677964Y-91581216D01*
X91677964Y-78581216D02*
G75*
G03*
X91177964Y-78081216I-500000J0D01*
G01*
X258891024Y-19906216D02*
X258891024Y-15406216D01*
X258891024Y-19906216D02*
G75*
G03*
X262891024Y-19906216I2000000J0D01*
G01*
X262891024Y-15406216D02*
X262891024Y-19906216D01*
X262891064Y-15406216D02*
G75*
G03*
X262391024Y-14906216I-500000J0D01*
G01*
X259391024Y-14906216D02*
X262391024Y-14906216D01*
X259391024Y-14906176D02*
G75*
G03*
X258891024Y-15406216I40J-500040D01*
G01*
X240102964Y-59031216D02*
X253102964Y-59031216D01*
X240102964Y-59031216D02*
G75*
G03*
X239602964Y-59531216I0J-500000D01*
G01*
X239602964Y-72531216D02*
X239602964Y-59531216D01*
X239602964Y-72531216D02*
G75*
G03*
X240102964Y-73031216I500000J0D01*
G01*
X253102964Y-73031216D02*
X240102964Y-73031216D01*
X253102964Y-73031216D02*
G75*
G03*
X253602964Y-72531216I0J500000D01*
G01*
X253602964Y-59531216D02*
X253602964Y-72531216D01*
X253602964Y-59531216D02*
G75*
G03*
X253102964Y-59031216I-500000J0D01*
G01*
X18647024Y-97131216D02*
X34027814Y-97131216D01*
X18647024Y-97131216D02*
G75*
G03*
X18147024Y-97631216I0J-500000D01*
G01*
X18147024Y-110631216D02*
X18147024Y-97631216D01*
X18147024Y-110631216D02*
G75*
G03*
X18647024Y-111131216I500000J0D01*
G01*
X34027814Y-111131216D02*
X18647024Y-111131216D01*
X34027814Y-111131266D02*
G75*
G03*
X34527814Y-110631216I-50J500050D01*
G01*
X34527814Y-97631216D02*
X34527814Y-110631216D01*
X34527764Y-97631216D02*
G75*
G03*
X34027814Y-97131216I-500000J0D01*
G01*
X197883604Y-95280676D02*
G75*
G03*
X197358614Y-94755676I-525040J-40D01*
G01*
X191058614Y-94755676D02*
X197358614Y-94755676D01*
X191058614Y-94755666D02*
G75*
G03*
X190533614Y-95280676I50J-525050D01*
G01*
X190533614Y-109980676D02*
X190533614Y-95280676D01*
X190533704Y-109980676D02*
G75*
G03*
X191058614Y-110505676I524960J-40D01*
G01*
X197358614Y-110505676D02*
X191058614Y-110505676D01*
X197358614Y-110505766D02*
G75*
G03*
X197883614Y-109980676I-50J525050D01*
G01*
X197883614Y-95280676D02*
X197883614Y-109980676D01*
X279796114Y-78581216D02*
X279796114Y-91581216D01*
X279796064Y-78581216D02*
G75*
G03*
X279296114Y-78081216I-500000J0D01*
G01*
X256771714Y-78081216D02*
X279296114Y-78081216D01*
X256771714Y-78081166D02*
G75*
G03*
X256271714Y-78581216I50J-500050D01*
G01*
X256271714Y-91581216D02*
X256271714Y-78581216D01*
X256271764Y-91581216D02*
G75*
G03*
X256771714Y-92081216I500000J0D01*
G01*
X257121114Y-92081216D02*
X256771714Y-92081216D01*
X257121114Y-93930716D02*
X257121114Y-92081216D01*
X257121164Y-93930716D02*
G75*
G03*
X257646114Y-94455716I525000J0D01*
G01*
X263946114Y-94455716D02*
X257646114Y-94455716D01*
X263946114Y-94455766D02*
G75*
G03*
X264471114Y-93930716I-50J525050D01*
G01*
X264471114Y-92081216D02*
X264471114Y-93930716D01*
X279296114Y-92081216D02*
X264471114Y-92081216D01*
X279296114Y-92081266D02*
G75*
G03*
X279796114Y-91581216I-50J500050D01*
G01*
X163902964Y-59031216D02*
X176902964Y-59031216D01*
X163902964Y-59031216D02*
G75*
G03*
X163402964Y-59531216I0J-500000D01*
G01*
X163402964Y-72531216D02*
X163402964Y-59531216D01*
X163402964Y-72531216D02*
G75*
G03*
X163902964Y-73031216I500000J0D01*
G01*
X176902964Y-73031216D02*
X163902964Y-73031216D01*
X176902964Y-73031216D02*
G75*
G03*
X177402964Y-72531216I0J500000D01*
G01*
X177402964Y-59531216D02*
X177402964Y-72531216D01*
X177402964Y-59531216D02*
G75*
G03*
X176902964Y-59031216I-500000J0D01*
G01*
X92465764Y-20931216D02*
X105465764Y-20931216D01*
X92465764Y-20931216D02*
G75*
G03*
X91965764Y-21431216I0J-500000D01*
G01*
X91965764Y-34431216D02*
X91965764Y-21431216D01*
X91965764Y-34431216D02*
G75*
G03*
X92465764Y-34931216I500000J0D01*
G01*
X105465764Y-34931216D02*
X92465764Y-34931216D01*
X105465764Y-34931216D02*
G75*
G03*
X105965764Y-34431216I0J500000D01*
G01*
X105965764Y-21431216D02*
X105965764Y-34431216D01*
X105965764Y-21431216D02*
G75*
G03*
X105465764Y-20931216I-500000J0D01*
G01*
X63890464Y-39981216D02*
X76890464Y-39981216D01*
X63890464Y-39981216D02*
G75*
G03*
X63390464Y-40481216I0J-500000D01*
G01*
X63390464Y-53481216D02*
X63390464Y-40481216D01*
X63390464Y-53481216D02*
G75*
G03*
X63890464Y-53981216I500000J0D01*
G01*
X76890464Y-53981216D02*
X63890464Y-53981216D01*
X76890464Y-53981216D02*
G75*
G03*
X77390464Y-53481216I0J500000D01*
G01*
X77390464Y-40481216D02*
X77390464Y-53481216D01*
X77390464Y-40481216D02*
G75*
G03*
X76890464Y-39981216I-500000J0D01*
G01*
X135327964Y-78081216D02*
X148327964Y-78081216D01*
X135327964Y-78081216D02*
G75*
G03*
X134827964Y-78581216I0J-500000D01*
G01*
X134827964Y-91581216D02*
X134827964Y-78581216D01*
X134827964Y-91581216D02*
G75*
G03*
X135327964Y-92081216I500000J0D01*
G01*
X148327964Y-92081216D02*
X135327964Y-92081216D01*
X148327964Y-92081216D02*
G75*
G03*
X148827964Y-91581216I0J500000D01*
G01*
X148827964Y-78581216D02*
X148827964Y-91581216D01*
X148827964Y-78581216D02*
G75*
G03*
X148327964Y-78081216I-500000J0D01*
G01*
X137708114Y-97131216D02*
X162615114Y-97131216D01*
X137708114Y-97131166D02*
G75*
G03*
X137208114Y-97631216I50J-500050D01*
G01*
X137208114Y-110631216D02*
X137208114Y-97631216D01*
X137208164Y-110631216D02*
G75*
G03*
X137708114Y-111131216I500000J0D01*
G01*
X162615114Y-111131216D02*
X137708114Y-111131216D01*
X162615114Y-111131266D02*
G75*
G03*
X163115114Y-110631216I-50J500050D01*
G01*
X163115114Y-97631216D02*
X163115114Y-110631216D01*
X163115064Y-97631216D02*
G75*
G03*
X162615114Y-97131216I-500000J0D01*
G01*
X42505934Y-70730466D02*
X42505934Y-61331266D01*
X42505934Y-70730466D02*
G75*
G03*
X43505934Y-70730466I500000J0D01*
G01*
X43505934Y-61331266D02*
X43505934Y-70730466D01*
X43505934Y-61331266D02*
G75*
G03*
X42505934Y-61331266I-500000J0D01*
G01*
X66272114Y-97131216D02*
X81652904Y-97131216D01*
X66272114Y-97131166D02*
G75*
G03*
X65772114Y-97631216I50J-500050D01*
G01*
X65772114Y-110631216D02*
X65772114Y-97631216D01*
X65772064Y-110631216D02*
G75*
G03*
X66272114Y-111131216I500000J0D01*
G01*
X81652904Y-111131216D02*
X66272114Y-111131216D01*
X81652904Y-111131256D02*
G75*
G03*
X82152904Y-110631216I-40J500040D01*
G01*
X82152904Y-97631216D02*
X82152904Y-110631216D01*
X82152864Y-97631216D02*
G75*
G03*
X81652904Y-97131216I-500000J0D01*
G01*
X244865764Y-20931216D02*
X257865764Y-20931216D01*
X244865764Y-20931216D02*
G75*
G03*
X244365764Y-21431216I0J-500000D01*
G01*
X244365764Y-34431216D02*
X244365764Y-21431216D01*
X244365764Y-34431216D02*
G75*
G03*
X244865764Y-34931216I500000J0D01*
G01*
X257865764Y-34931216D02*
X244865764Y-34931216D01*
X257865764Y-34931216D02*
G75*
G03*
X258365764Y-34431216I0J500000D01*
G01*
X258365764Y-21431216D02*
X258365764Y-34431216D01*
X258365764Y-21431216D02*
G75*
G03*
X257865764Y-20931216I-500000J0D01*
G01*
X90944478Y-94755676D02*
X102040300Y-94755676D01*
X90944478Y-94755730D02*
G75*
G03*
X90419478Y-95280676I-14J-524986D01*
G01*
X90419478Y-109980676D02*
X90419478Y-95280676D01*
X90419504Y-109980676D02*
G75*
G03*
X90944478Y-110505676I524960J-40D01*
G01*
X102040300Y-110505676D02*
X90944478Y-110505676D01*
X102040300Y-110505752D02*
G75*
G03*
X102565300Y-109980676I-36J525036D01*
G01*
X102565300Y-95280676D02*
X102565300Y-109980676D01*
X102565304Y-95280676D02*
G75*
G03*
X102040300Y-94755676I-525040J-40D01*
G01*
X106752964Y-59031216D02*
X119752964Y-59031216D01*
X106752964Y-59031216D02*
G75*
G03*
X106252964Y-59531216I0J-500000D01*
G01*
X106252964Y-72531216D02*
X106252964Y-59531216D01*
X106252964Y-72531216D02*
G75*
G03*
X106752964Y-73031216I500000J0D01*
G01*
X119752964Y-73031216D02*
X106752964Y-73031216D01*
X119752964Y-73031216D02*
G75*
G03*
X120252964Y-72531216I0J500000D01*
G01*
X120252964Y-59531216D02*
X120252964Y-72531216D01*
X120252964Y-59531216D02*
G75*
G03*
X119752964Y-59031216I-500000J0D01*
G01*
X211527964Y-78081216D02*
X224527964Y-78081216D01*
X211527964Y-78081216D02*
G75*
G03*
X211027964Y-78581216I0J-500000D01*
G01*
X211027964Y-91581216D02*
X211027964Y-78581216D01*
X211027964Y-91581216D02*
G75*
G03*
X211527964Y-92081216I500000J0D01*
G01*
X224527964Y-92081216D02*
X211527964Y-92081216D01*
X224527964Y-92081216D02*
G75*
G03*
X225027964Y-91581216I0J500000D01*
G01*
X225027964Y-78581216D02*
X225027964Y-91581216D01*
X225027964Y-78581216D02*
G75*
G03*
X224527964Y-78081216I-500000J0D01*
G01*
X221052964Y-59031216D02*
X234052964Y-59031216D01*
X221052964Y-59031216D02*
G75*
G03*
X220552964Y-59531216I0J-500000D01*
G01*
X220552964Y-72531216D02*
X220552964Y-59531216D01*
X220552964Y-72531216D02*
G75*
G03*
X221052964Y-73031216I500000J0D01*
G01*
X234052964Y-73031216D02*
X221052964Y-73031216D01*
X234052964Y-73031216D02*
G75*
G03*
X234552964Y-72531216I0J500000D01*
G01*
X234552964Y-59531216D02*
X234552964Y-72531216D01*
X234552964Y-59531216D02*
G75*
G03*
X234052964Y-59031216I-500000J0D01*
G01*
M02*
